<svg id="Capa_1" data-name="Capa 1" xmlns="http://www.w3.org/2000/svg" viewBox="0 0 398.35 424.28"><defs><style>.cls-1{fill:#111;}.cls-2{fill:#f27a1c;}.cls-3{fill:#e63c1f;}.cls-4{fill:#e39d17;}</style></defs><title>Logo_CIX_black</title><g id="Capa_2" data-name="Capa 2"><g id="Capa_1-2" data-name="Capa 1-2"><path class="cls-1" d="M99.05,424.28C47.86,424.17,6.45,386.93.6,335.74c-5.35-46.84,25.68-92.88,71.24-104.85,41.5-10.9,76,1.24,104.11,33,5.46,6.19,4.57,10.95-2.42,15.56-3.89,2.56-7.82,5.06-11.73,7.59-9,5.82-11.31,5.43-17.67-3a55,55,0,0,0-23.81-18.37c-22.93-9.17-47.34-3.1-64,15.64-24,27.05-21.55,69.95,5.35,94.07a55.67,55.67,0,0,0,78.64-3.82l.24-.27c1.67-1.85,3.28-3.76,4.84-5.71,4.58-5.73,8-6.43,14.09-2.68,5,3,9.91,6.14,14.76,9.36,6.14,4.08,6.76,8.82,2.1,14.64C157.22,410.81,129.2,424.35,99.05,424.28Z"/><path class="cls-1" d="M376.3,422c-21.12-.38-15.43,3-27.82-14.83q-56.14-81.06-112-162.28c-.57-.82-1.15-1.64-1.66-2.49-3.73-6.3-.41-13,6.92-13.22,8.65-.3,17.32-.1,26-.06,4,0,6.25,2.48,8.17,5.65q14.91,24.53,29.93,49c.79,1.27,1.51,2.59,2.39,3.8,4.23,5.89,10.78,5.92,14.65-.22,6.13-9.71,12-19.6,17.93-29.4,4.58-7.54,9.28-15,13.7-22.63,2.5-4.32,5.8-6.45,10.92-6.29,7.66.26,15.33.12,23,0,3.85,0,6.83,1.31,8.57,4.86,1.65,3.37.71,6.35-1.34,9.3q-26,37.55-52,75.15c-4.23,6.14-4.24,7.87-.07,13.89q25.86,37.35,51.78,74.67c2.41,3.45,4.28,6.9,2,11-2.2,3.94-6,4.25-10,4.05h-2Z"/><path class="cls-2" d="M398.26,183.45V188c-.29,10.4-7,17.62-16.54,17.74-10.07.13-17.17-6.53-17.47-17.19-.51-18.25-2.69-36.21-9.15-53.36C337,87,303.67,54.81,254,40.14c-11.56-3.42-23.48-4.49-35.46-5.17-7-.4-12.55-3.26-15.36-10-2.92-7.06-2-13.66,2.9-19.62,3.5-4.29,8.2-5.45,13.4-5.35,24.6.51,48.25,5.52,70.54,16,43.78,20.59,74.9,53.51,93.73,98C393.12,136.14,397.54,159.43,398.26,183.45Z"/><path class="cls-3" d="M338.81,180.24c.26,6.58.7,11-1.05,15.4-3,7.54-10,11.42-19,10.24a15.67,15.67,0,0,1-13.61-14.42c-.94-14.17-2.43-28.13-8.81-41.15-14.9-30.4-38.67-48-72.81-50.52-13.58-1-20.05-6.47-20.3-17.69S209.81,63.78,221,63.88a111.67,111.67,0,0,1,56.49,15.86c32.66,19.23,51.61,48.15,59.4,84.78C338.12,170.34,338.35,176.38,338.81,180.24Z"/><path class="cls-1" d="M220.72,332.69q2.17,39.4,4.33,78.81c.38,7.22-2.71,10.41-10,10.47-6.66,0-13.33.06-20,0s-9.69-3-9.72-9.77c0-7.33.16-14.65.29-22q1.22-67.69,2.44-135.39c.17-9.31,2.92-11.94,12-11.61,15.35.56,15.58.54,16.53,15.65,1.53,24.6,2.73,49.22,4.07,73.83Z"/><path class="cls-4" d="M221.07,128.63c27,1,51,22.6,55.2,49.7.66,4.28,1.37,8.55,1,12.91-.76,9-8.14,15.6-17.58,15.65-8.54.05-15.4-6.22-16.38-15-.55-5-1-9.91-3.43-14.44C235.19,168.64,227.6,164.87,218,164c-12.6-1.14-19.53-11.9-15.66-23.9C204.94,132,211,128.27,221.07,128.63Z"/><path class="cls-1" d="M254,422c-3.5,0-7-.09-10.49,0-4,.13-7.77-.28-9.88-4.25-2.21-4.15-.33-7.67,2.05-11.07q11.74-16.77,23.4-33.59c4.37-6.28,8.67-12.62,13.1-18.86,3.93-5.54,7.57-6.45,13.72-3.46q8.06,3.93,16,8.12c6.85,3.6,8.16,8.34,3.8,14.66C295.41,388.48,285,403.3,274.6,418.2a8,8,0,0,1-7.12,3.77c-4.49-.07-9,0-13.49,0Z"/><path class="cls-1" d="M201.54,175a25.33,25.33,0,0,1,25.34,25.25,25.85,25.85,0,0,1-25.46,25.35,25.31,25.31,0,0,1-25.06-25.51A24.68,24.68,0,0,1,200.62,175Z"/></g></g></svg>