<svg width="906" height="1284" viewBox="0 0 906 1284" fill="none" xmlns="http://www.w3.org/2000/svg">
<path d="M229.5 216.5C596.5 261.5 648.5 586 640 619C631.5 652 428.2 1063.46 396 976.5C363.8 889.538 569 976.5 569 976.5" stroke="#8F8FB1" stroke-width="6"/>
<path d="M224.5 212.5C591.5 257.5 643.5 582 635 615C626.5 648 423.2 1059.46 391 972.5C358.8 885.538 564 972.5 564 972.5" stroke="#313131" stroke-opacity="0.83" stroke-width="6"/>
<path d="M514.439 1024.82C514.439 1024.82 510.949 1012.88 512.264 1011.23C513.578 1009.58 530.969 1002.69 553.004 998.765C575.039 994.839 576.017 996.636 577.663 997.951C579.31 999.267 580.924 1012.71 580.791 1015.46C580.659 1018.21 514.439 1024.82 514.439 1024.82Z" fill="#0F0648"/>
<path d="M615.128 1117.82L613.497 1121.12L602.112 1144.17L591.206 1166.26C586.274 1162.54 585.133 1149.54 585.703 1139.67C586.273 1129.81 585.129 1123.22 585.129 1123.22C582.149 1121.66 579.713 1118.97 577.899 1116.39C576.647 1114.61 575.692 1112.89 575.057 1111.63L575.057 1111.62C574.45 1110.42 574.135 1109.64 574.135 1109.64C562.25 1109.83 554.423 1101.87 552.548 1100.56C550.673 1099.25 547.051 1100.29 543.211 1108.21C539.755 1115.33 531.51 1117.99 529.898 1118.45C529.719 1118.5 529.621 1118.53 529.621 1118.53C529.21 1120.45 528.789 1122.19 528.359 1123.76C524.904 1136.46 521.155 1138.05 521.155 1138.05C520.615 1142.18 522.886 1148.28 523.386 1156.05C523.885 1163.81 522.702 1175.75 522.702 1175.75L512.247 1168.77L491.792 1155.1C491.792 1155.1 484.497 1136.13 485.195 1129.92C485.387 1128.21 485.846 1126.63 486.408 1125.24C487.07 1123.6 487.876 1122.22 488.564 1121.2C488.564 1121.2 488.566 1121.2 488.57 1121.2C489.413 1119.94 490.081 1119.23 490.081 1119.23C490.081 1119.23 490.085 1118.23 490.185 1116.67C490.229 1115.98 490.294 1115.17 490.384 1114.29C490.59 1112.32 490.934 1109.99 491.51 1107.73C491.656 1107.16 491.833 1106.6 492.041 1106.06C492.409 1105.08 492.862 1104.17 493.344 1103.35C493.827 1102.52 494.339 1101.78 494.833 1101.14L494.833 1101.14C494.833 1101.14 494.832 1101.14 494.838 1101.14C494.844 1101.13 494.863 1101.1 494.892 1101.06C494.905 1101.05 494.916 1101.03 494.929 1101.02C494.933 1101.01 494.94 1101.01 494.945 1101C494.951 1100.99 494.956 1100.98 494.962 1100.98L495.014 1100.91C495.056 1100.85 495.096 1100.8 495.137 1100.75C495.177 1100.7 495.216 1100.65 495.258 1100.61C495.402 1100.43 495.543 1100.26 495.682 1100.1C496.596 1099.04 497.301 1098.42 497.353 1098.38C497.352 1098.37 497.355 1098.38 497.355 1098.38L497.357 1098.37C497.357 1098.37 497.882 1096.76 498.596 1094.43C499.146 1092.63 499.812 1090.41 500.432 1088.2C501.855 1083.11 501.791 1081.28 505.138 1078.88C508.428 1076.51 509.296 1074.45 511.233 1073.01C511.235 1073.01 511.239 1073.01 511.242 1073.01C511.273 1072.98 511.302 1072.96 511.333 1072.94C512.46 1072.13 514.508 1070.93 516.089 1070.03C516.089 1070.03 516.096 1070.03 516.107 1070.02C517.335 1069.32 518.278 1068.8 518.278 1068.8C518.379 1065.14 519.645 1062.12 519.645 1062.12C519.319 1061.61 519.025 1060.74 518.803 1059.92C518.528 1058.93 518.359 1058.05 518.359 1058.05C517.818 1058.39 517.289 1058.69 516.775 1058.96L516.764 1058.97C511.127 1061.93 507.247 1060.72 507.247 1060.72C505.733 1061.3 504.258 1061.69 502.831 1061.91C500.866 1062.21 498.991 1062.21 497.227 1061.99C488.029 1060.84 481.85 1053.83 481.85 1053.83L486.893 1047.16L498.026 1032.44C499.92 1032.86 501.266 1033.48 502.214 1034.1C502.214 1034.1 502.216 1034.1 502.224 1034.11C502.553 1034.33 502.835 1034.54 503.073 1034.75C503.076 1034.75 503.078 1034.75 503.081 1034.76C503.217 1034.88 503.338 1034.99 503.447 1035.1C503.988 1035.65 504.225 1036.1 504.304 1036.27C504.306 1036.27 504.306 1036.27 504.306 1036.27C504.327 1036.31 504.337 1036.34 504.337 1036.34C504.336 1036.33 504.339 1036.33 504.34 1036.32L504.34 1036.32C504.383 1035.96 504.443 1035.64 504.512 1035.34C504.68 1034.6 504.921 1034.01 505.193 1033.54C505.251 1033.44 505.311 1033.34 505.372 1033.25C505.698 1032.76 506.057 1032.42 506.389 1032.19C507.05 1031.71 507.603 1031.65 507.603 1031.65C507.645 1031.34 507.692 1031.04 507.743 1030.75C509.627 1019.69 516.789 1019.65 516.789 1019.65C518.557 1011.35 527.024 1011.51 527.024 1011.51C527.024 1011.51 528.802 1011.99 531.612 1012.48C531.618 1012.48 531.626 1012.48 531.633 1012.49C536.123 1013.27 543.242 1014.08 549.946 1013C557.339 1011.81 562.017 1007.99 564.266 1005.64C565.338 1004.52 565.86 1003.74 565.86 1003.74C572.901 1002.35 578.017 1011.33 578.017 1011.33C582.021 1011.47 585.137 1014.24 586.91 1016.3C587.979 1017.53 588.559 1018.51 588.559 1018.51C588.605 1018.45 588.654 1018.4 588.701 1018.34C589.183 1017.78 589.705 1017.28 590.25 1016.86C590.252 1016.85 590.254 1016.85 590.257 1016.85C590.263 1016.85 590.268 1016.84 590.275 1016.84C590.293 1016.82 590.304 1016.81 590.304 1016.81L590.304 1016.81C590.4 1016.74 590.495 1016.66 590.591 1016.59L590.593 1016.59C591.465 1015.95 592.376 1015.45 593.237 1015.06C595.445 1014.08 597.315 1013.86 597.315 1013.86L606.093 1033.68L607.992 1037.97C607.992 1037.97 606.66 1044 599.963 1047.16C599.37 1047.44 598.731 1047.7 598.048 1047.93C597.563 1048.09 597.068 1048.22 596.57 1048.32C591.235 1049.37 585.495 1046.82 582.243 1044.98L582.243 1044.98C582.243 1044.98 582.199 1044.96 582.117 1044.91C582.091 1044.9 582.066 1044.88 582.041 1044.87C581.983 1044.83 581.912 1044.79 581.833 1044.74C580.432 1043.93 579.592 1043.31 579.592 1043.31C579.905 1044.23 580.129 1045.2 580.284 1046.17L580.284 1046.17C580.314 1046.36 580.341 1046.55 580.366 1046.74C580.949 1051.12 580.244 1055.42 580.244 1055.42C581.168 1058.31 581.553 1060.48 581.653 1062.09C581.822 1064.87 581.155 1066 580.928 1066.29C580.893 1066.34 580.869 1066.37 580.861 1066.38C580.892 1066.36 581.073 1066.26 581.4 1066.12C581.407 1066.11 581.414 1066.11 581.42 1066.11C581.83 1065.93 582.458 1065.71 583.298 1065.53C583.421 1065.51 583.548 1065.49 583.677 1065.46C583.693 1065.46 583.712 1065.46 583.728 1065.46C584.189 1065.38 584.704 1065.32 585.272 1065.29L585.274 1065.29C587.317 1065.18 590.039 1065.47 593.394 1066.76C593.396 1066.76 593.399 1066.76 593.402 1066.76C593.485 1066.8 593.57 1066.83 593.656 1066.86C593.816 1066.93 593.978 1066.99 594.143 1067.06C602.73 1070.65 605.967 1084.73 605.967 1084.73C606.922 1085.35 608.328 1086.83 609.69 1088.93C611.666 1091.96 613.555 1096.29 613.859 1101.16C614.376 1109.38 615.128 1117.82 615.128 1117.82Z" fill="#E4DFEA"/>
<path d="M497.226 1061.99C488.03 1060.85 481.849 1053.83 481.849 1053.83L486.893 1047.16C488.466 1049.32 491.903 1053.23 496.973 1054.68C498.731 1055.17 500.338 1055.32 501.761 1055.26C500.707 1057.6 499.238 1059.9 497.226 1061.99Z" fill="#C9BCD1"/>
<path d="M575.554 1065.2L567.926 1075.95C567.926 1075.95 561.19 1086.07 549.248 1084.65C537.307 1083.24 526.849 1071.94 518.093 1076.59C509.337 1081.25 504.001 1092.19 504.001 1092.19L508.987 1090.87C508.987 1090.87 500.119 1096.32 498.444 1099.9C498.054 1100.73 498.05 1101.45 498.626 1101.99L493.343 1103.35C493.827 1102.53 494.338 1101.78 494.833 1101.14L494.833 1101.14C494.833 1101.14 494.832 1101.14 494.838 1101.14C494.844 1101.13 494.863 1101.1 494.892 1101.06C494.905 1101.05 494.916 1101.03 494.929 1101.02C494.933 1101.01 494.94 1101.01 494.945 1101C494.951 1100.99 494.955 1100.98 494.962 1100.98L495.014 1100.91C495.056 1100.85 495.095 1100.8 495.137 1100.75C495.177 1100.7 495.216 1100.65 495.258 1100.61C495.402 1100.43 495.543 1100.26 495.681 1100.1C496.596 1099.04 497.301 1098.42 497.353 1098.38C497.352 1098.38 497.354 1098.38 497.354 1098.38L497.357 1098.37C497.357 1098.37 497.881 1096.76 498.596 1094.43C499.146 1092.63 499.812 1090.41 500.431 1088.2C501.854 1083.11 501.791 1081.28 505.137 1078.88C508.428 1076.51 509.296 1074.45 511.233 1073.01C511.235 1073.01 511.239 1073.01 511.242 1073.01C511.273 1072.98 511.302 1072.96 511.333 1072.94C512.46 1072.13 514.508 1070.93 516.089 1070.03C516.089 1070.03 516.096 1070.03 516.106 1070.02C517.335 1069.32 518.278 1068.8 518.278 1068.8C518.379 1065.14 519.645 1062.12 519.645 1062.12C519.318 1061.61 519.025 1060.74 518.802 1059.92C518.528 1058.93 518.359 1058.05 518.359 1058.05C517.818 1058.39 517.289 1058.69 516.775 1058.96L516.763 1058.97C511.127 1061.93 507.247 1060.72 507.247 1060.72C505.733 1061.3 504.258 1061.69 502.831 1061.91C503.802 1060.3 504.95 1057.87 505.746 1054.48C507.7 1053.79 508.803 1052.89 508.803 1052.89C508.803 1052.89 510.245 1054.9 513.9 1054.77C517.554 1054.64 524.768 1051.64 524.86 1047.75C524.86 1047.75 527.28 1060.9 541.732 1065.92C556.087 1070.91 569.451 1067.24 575.554 1065.2Z" fill="#C9BCD1"/>
<path d="M521.155 1138.05C520.614 1142.18 522.886 1148.28 523.385 1156.05C523.885 1163.81 522.702 1175.75 522.702 1175.75L512.246 1168.77C514.952 1162.06 512.07 1151.69 511.99 1144.09C511.891 1134.71 517.601 1134.51 517.601 1134.51C515.207 1126.37 519.101 1120.14 523.056 1117.13C525.602 1119.63 527.277 1121.94 528.359 1123.76C524.903 1136.46 521.155 1138.05 521.155 1138.05Z" fill="#C9BCD1"/>
<path d="M579.889 1101.28C576.966 1105.73 575.616 1109.62 575.056 1111.62C574.45 1110.42 574.135 1109.64 574.135 1109.64C562.249 1109.83 554.424 1101.87 552.548 1100.56C550.674 1099.25 547.051 1100.29 543.211 1108.21C539.755 1115.33 531.509 1117.99 529.897 1118.45C529.248 1117.56 528.155 1116.1 526.709 1114.39C529.602 1111.71 532.073 1107.83 536.126 1101.82C541.344 1094.09 547.698 1092.7 550.882 1092.15C555.883 1091.29 558.051 1094.42 569.215 1099.75C573.076 1101.59 576.744 1101.8 579.889 1101.28Z" fill="#C9BCD1"/>
<path d="M602.113 1144.17L591.207 1166.26C586.275 1162.54 585.134 1149.54 585.704 1139.67C586.274 1129.81 585.129 1123.22 585.129 1123.22C582.15 1121.66 579.714 1118.97 577.899 1116.39C579.576 1113.21 583.35 1106.54 588.112 1100.99C586.267 1107.55 589.302 1112.77 592.933 1117.45C592.933 1117.45 591.456 1127.57 593.138 1136.44C594.232 1142.2 598.947 1143.78 602.113 1144.17Z" fill="#C9BCD1"/>
<path d="M615.128 1117.82L613.498 1121.12C610.73 1117.82 608.469 1110.97 607.472 1101.61C606.111 1088.84 598.339 1086.82 598.339 1086.82C601.782 1076.74 594.966 1068.35 593.656 1066.86C593.816 1066.93 593.978 1066.99 594.144 1067.06C602.73 1070.65 605.967 1084.73 605.967 1084.73C606.922 1085.35 608.328 1086.83 609.69 1088.93C611.666 1091.96 613.555 1096.29 613.859 1101.16C614.376 1109.38 615.128 1117.82 615.128 1117.82Z" fill="#E4DFEA"/>
<path d="M522.238 1018.55C522.855 1023.1 530.416 1023.52 530.416 1023.52C525.66 1024.83 521.753 1024.28 516.916 1023.31C512.079 1022.34 508.492 1030.93 509.792 1031.54C511.091 1032.14 512.274 1034.46 512.274 1034.46C508.548 1032.53 507.927 1034.38 508.984 1038.46C510.042 1042.55 509.344 1048.75 509.344 1048.75C508.741 1044.52 506.169 1038.75 504.511 1035.34C504.68 1034.6 504.92 1034.01 505.192 1033.54C505.25 1033.44 505.311 1033.34 505.371 1033.25C505.697 1032.76 506.056 1032.42 506.388 1032.19C507.049 1031.71 507.602 1031.65 507.602 1031.65C507.644 1031.34 507.691 1031.04 507.743 1030.75C509.626 1019.69 516.788 1019.65 516.788 1019.65C518.556 1011.35 527.024 1011.51 527.024 1011.51C527.024 1011.51 528.802 1011.99 531.611 1012.48C528.156 1011.92 521.622 1014 522.238 1018.55Z" fill="#C9BCD1"/>
<path d="M588.701 1018.34L588.499 1019.2C583.415 1013.66 576.521 1014.35 576.521 1014.35C575.515 1018.28 568.671 1018.75 568.671 1018.75C568.671 1018.75 574.065 1016.04 573.489 1012.63C572.912 1009.22 564.333 1005.86 564.333 1005.86C564.307 1005.79 564.286 1005.71 564.266 1005.64C565.338 1004.53 565.86 1003.74 565.86 1003.74C572.901 1002.35 578.017 1011.33 578.017 1011.33C582.021 1011.47 585.137 1014.24 586.91 1016.3C587.979 1017.53 588.559 1018.51 588.559 1018.51C588.605 1018.45 588.654 1018.4 588.701 1018.34Z" fill="#E4DFEA"/>
<path d="M496.097 1108.27C495.923 1108.65 490.324 1120.97 486.412 1125.23C486.41 1125.24 486.41 1125.24 486.407 1125.24C487.069 1123.6 487.876 1122.22 488.563 1121.2C488.563 1121.2 488.565 1121.2 488.569 1121.2C489.413 1119.94 490.081 1119.22 490.081 1119.22C490.081 1119.22 490.085 1118.23 490.183 1116.67C490.227 1115.98 490.293 1115.17 490.384 1114.29C492.003 1113.18 494.669 1111.06 496.097 1108.27Z" fill="#CEC4D5"/>
<path d="M592.917 1041.71C593.865 1043.91 595.063 1046.13 596.571 1048.32C591.236 1049.37 585.496 1046.82 582.243 1044.98L582.243 1044.98C582.243 1044.98 582.199 1044.96 582.117 1044.91C582.091 1044.9 582.066 1044.88 582.041 1044.87C581.982 1044.83 581.912 1044.79 581.833 1044.74C580.432 1043.93 579.592 1043.31 579.592 1043.31C579.905 1044.23 580.129 1045.2 580.284 1046.17L580.284 1046.17C580.313 1046.36 580.34 1046.55 580.365 1046.74C573.877 1037.06 571.265 1024.55 571.144 1023.95C571.334 1024.56 575.282 1036.93 585.672 1040.58C588.348 1041.52 590.762 1041.83 592.917 1041.71Z" fill="#C9BCD1"/>
<path d="M607.992 1037.97C607.992 1037.97 606.659 1044 599.963 1047.16C598.975 1045.77 597.738 1043.77 596.52 1041.07C601.713 1039.49 604.878 1035.5 606.092 1033.68L607.992 1037.97Z" fill="#C9BCD1"/>
<path d="M583.297 1065.53L583.298 1065.55C583.298 1065.55 573.391 1070.69 571.768 1072.38C570.147 1074.08 568.677 1076.71 561.162 1078.74C559.349 1079.23 557.178 1079.7 554.801 1080.03C548.262 1080.92 540.161 1080.7 533.649 1076.73C533.649 1076.73 531.196 1072.13 525.4 1069.41C525.723 1069.49 530.493 1070.72 534.136 1071.07C534.421 1071.09 534.696 1071.12 534.962 1071.13C535.405 1071.16 535.818 1071.16 536.198 1071.15C536.198 1071.15 536.901 1070.27 537.757 1069.95C538.565 1069.65 540.594 1069.75 543.272 1069.81C543.616 1069.82 543.968 1069.83 544.332 1069.83C545.883 1069.86 547.608 1069.86 549.413 1069.77C551.007 1069.69 552.564 1069.56 553.975 1069.41C554.342 1069.38 554.7 1069.34 555.043 1069.3C557.561 1069.02 559.438 1068.73 559.897 1068.72C561.115 1068.68 562.095 1069.43 562.492 1069.8C562.617 1069.92 562.686 1069.99 562.686 1069.99C562.686 1069.99 562.942 1069.91 563.393 1069.77C564.241 1069.49 565.786 1068.98 567.659 1068.31C567.918 1068.22 568.187 1068.13 568.461 1068.03C569.003 1067.83 569.564 1067.63 570.142 1067.41C570.339 1067.34 570.533 1067.26 570.734 1067.19L570.736 1067.19C572.162 1066.65 573.658 1066.05 575.105 1065.43C575.258 1065.37 575.414 1065.3 575.564 1065.24C577.914 1064.21 580.105 1063.13 581.652 1062.09C581.673 1062.44 581.681 1062.75 581.678 1063.04C581.664 1065.13 581.127 1066.03 580.927 1066.29C580.893 1066.34 580.868 1066.37 580.86 1066.38C580.891 1066.36 581.073 1066.26 581.399 1066.12C581.406 1066.11 581.413 1066.11 581.419 1066.11C581.829 1065.93 582.458 1065.71 583.297 1065.53Z" fill="#0F0648"/>
<path d="M581.679 1063.04C579.246 1064.42 570.429 1069.25 563.429 1070.77L563.211 1073.82C563.229 1073.5 563.256 1070.01 556.087 1070.91C548.573 1071.86 541.247 1071.66 541.247 1071.66C541.247 1071.66 542.963 1080.59 554.801 1080.03C548.263 1080.92 540.161 1080.7 533.649 1076.73C533.649 1076.73 531.196 1072.13 525.401 1069.41C525.723 1069.5 530.493 1070.72 534.137 1071.07C534.422 1071.09 534.696 1071.12 534.962 1071.13C535.405 1071.16 535.819 1071.16 536.198 1071.15C536.198 1071.15 536.902 1070.27 537.757 1069.95C538.565 1069.65 540.595 1069.75 543.273 1069.81C543.616 1069.82 543.969 1069.83 544.333 1069.83C545.884 1069.86 547.608 1069.86 549.414 1069.77C551.008 1069.69 552.565 1069.56 553.975 1069.41C554.343 1069.38 554.7 1069.34 555.044 1069.3C557.561 1069.02 559.438 1068.73 559.897 1068.72C561.114 1068.68 562.095 1069.44 562.492 1069.8C562.617 1069.92 562.686 1069.99 562.686 1069.99C562.686 1069.99 562.942 1069.91 563.394 1069.77C564.242 1069.49 565.787 1068.98 567.659 1068.31C567.919 1068.22 568.187 1068.13 568.461 1068.03C569.003 1067.83 569.565 1067.63 570.142 1067.41C570.339 1067.34 570.534 1067.26 570.734 1067.19L570.737 1067.19C572.162 1066.65 573.659 1066.05 575.106 1065.43C575.259 1065.37 575.414 1065.3 575.565 1065.24C577.914 1064.21 580.106 1063.13 581.653 1062.1C581.674 1062.44 581.682 1062.75 581.679 1063.04Z" fill="#1C1B48"/>
<path d="M544.333 1069.83L544.032 1079.34L543.272 1069.81C543.616 1069.82 543.969 1069.83 544.333 1069.83Z" fill="#5C469E"/>
<path d="M555.044 1069.3L554.31 1078.98L553.975 1069.41C554.343 1069.38 554.7 1069.34 555.044 1069.3Z" fill="#5C469E"/>
<path d="M534.962 1071.13L534.278 1075.11L534.136 1071.07C534.42 1071.09 534.696 1071.12 534.962 1071.13Z" fill="#5C469E"/>
<path d="M562.698 1076.86C562.764 1074.1 562.595 1071.24 562.492 1069.8C562.617 1069.92 562.686 1069.99 562.686 1069.99C562.686 1069.99 562.942 1069.91 563.394 1069.77C563.505 1073.71 562.698 1076.86 562.698 1076.86Z" fill="#5C469E"/>
<path d="M568.461 1068.03L567.855 1073.93L567.658 1068.31C567.918 1068.22 568.187 1068.13 568.461 1068.03Z" fill="#5C469E"/>
<path d="M570.734 1067.19L570.288 1071.56L570.142 1067.41C570.339 1067.34 570.533 1067.26 570.734 1067.19Z" fill="#5C469E"/>
<path d="M575.565 1065.24L575.217 1068.64L575.106 1065.43C575.259 1065.37 575.414 1065.3 575.565 1065.24Z" fill="#5C469E"/>
<path d="M540.637 1080.38C535.652 1081.7 530.211 1069.99 520.625 1070.55C517.323 1070.75 513.643 1072.02 511.241 1073.01C511.272 1072.98 511.301 1072.96 511.332 1072.94C512.459 1072.13 514.507 1070.93 516.088 1070.03C516.088 1070.03 516.095 1070.02 516.106 1070.02C516.359 1069.91 519.105 1068.81 524.469 1069.27C531.348 1069.87 535.808 1079.63 540.637 1080.38Z" fill="#ACA4B5"/>
<path d="M593.395 1066.76C580.01 1064.62 566.84 1077.63 566.84 1077.63C572.618 1070.65 577.603 1067.61 580.927 1066.29C581.09 1066.23 581.246 1066.17 581.4 1066.12C581.407 1066.11 581.413 1066.11 581.419 1066.11C582.316 1065.78 583.075 1065.58 583.677 1065.46C583.693 1065.46 583.711 1065.46 583.727 1065.46C584.681 1065.27 585.224 1065.29 585.272 1065.29L585.275 1065.29C587.318 1065.18 590.04 1065.47 593.395 1066.76Z" fill="#ACA4B5"/>
<path d="M494.832 1101.14C494.832 1101.14 494.832 1101.14 494.836 1101.14C494.834 1101.14 494.832 1101.14 494.832 1101.14L494.832 1101.14Z" fill="#ACA4B5"/>
<path d="M508.979 1090.87C500.523 1094.18 495.49 1100.31 494.891 1101.06C496.207 1099.36 497.356 1098.37 497.356 1098.37C497.356 1098.37 497.88 1096.76 498.595 1094.43C503.163 1092.18 508.765 1090.92 508.979 1090.87Z" fill="#ACA4B5"/>
<path d="M493.093 1113.86C491.045 1118.59 488.713 1121.05 488.569 1121.2C489.413 1119.94 490.081 1119.22 490.081 1119.22C490.081 1119.22 490.085 1118.23 490.184 1116.67C491.928 1115.67 493.046 1113.93 493.093 1113.86Z" fill="#ACA4B5"/>
<path d="M590.251 1016.86C589.715 1017.31 585.261 1021.52 586.148 1034.62C586.148 1034.62 583.718 1024.75 586.91 1016.3C587.978 1017.53 588.559 1018.51 588.559 1018.51C589.079 1017.88 589.652 1017.33 590.251 1016.86Z" fill="#C0B8CC"/>
<path d="M590.274 1016.84C590.268 1016.84 590.263 1016.85 590.257 1016.85C590.261 1016.85 590.263 1016.84 590.265 1016.84C590.269 1016.84 590.272 1016.84 590.274 1016.84Z" fill="#ACA4B5"/>
<path d="M504.304 1036.27C503.827 1035.56 503.412 1035.08 503.08 1034.76C503.882 1035.46 504.21 1036.06 504.304 1036.27Z" fill="#ACA4B5"/>
<path d="M509.344 1048.75C507.48 1041.96 505.671 1038.29 504.34 1036.32L504.34 1036.32C504.489 1035.11 504.808 1034.21 505.192 1033.54C508.494 1040.16 509.344 1048.75 509.344 1048.75Z" fill="#ACA4B5"/>
<path d="M512.251 1033.77C509.415 1031.12 506.388 1032.19 506.388 1032.19C507.049 1031.71 507.603 1031.65 507.603 1031.65C507.645 1031.34 507.691 1031.04 507.743 1030.75C510.915 1031.48 512.251 1033.77 512.251 1033.77Z" fill="#ACA4B5"/>
<path d="M524.835 1053.7C524.717 1053.85 521.767 1057.41 518.802 1059.92C518.527 1058.93 518.359 1058.04 518.359 1058.04C517.818 1058.39 524.835 1053.7 524.835 1053.7Z" fill="#ACA4B5"/>
<path d="M579.592 1043.31C579.906 1044.23 580.129 1045.2 580.284 1046.17C577.516 1042.85 576.442 1038.67 576.403 1038.51C578.13 1042.18 580.814 1044.11 581.833 1044.74C580.433 1043.93 579.592 1043.31 579.592 1043.31Z" fill="#ACA4B5"/>
<path d="M531.315 1059.02L533.374 1062.32C529.807 1064.97 523.523 1068.39 520.105 1068.74C516.687 1069.09 514.607 1068.48 514.307 1066.43C514.079 1064.87 516.909 1062.3 518.279 1061.16C518.71 1060.81 518.997 1060.59 518.997 1060.59L519.645 1062.12C519.645 1062.12 515.49 1066.13 518.173 1066.71C518.258 1066.73 518.352 1066.75 518.451 1066.76C521.682 1067.13 531.197 1058.74 531.197 1058.74" fill="#0F0648"/>
<path d="M518.173 1066.71L518.171 1066.72C518.171 1066.72 515.693 1066.83 515.857 1065C515.948 1063.99 517.181 1062.4 518.279 1061.16C518.71 1060.81 518.997 1060.59 518.997 1060.59L519.645 1062.12C519.645 1062.12 515.491 1066.13 518.173 1066.71Z" fill="#51347E"/>
<path d="M587.432 1057.59C586.788 1058.47 585.651 1059.39 583.845 1060.33C579.394 1062.64 570.582 1060.33 570.582 1060.33L569.728 1055.56C569.728 1055.56 575.33 1058.79 581.04 1058.59C582.324 1058.55 583.333 1058.37 584.101 1058.11C586.082 1057.45 586.484 1056.25 585.962 1055.45C585.236 1054.33 580.3 1055.03 580.3 1055.03L580.549 1051.06C580.549 1051.06 582.825 1051.25 584.815 1051.9C585.981 1052.28 587.048 1052.82 587.496 1053.56C588.246 1054.81 588.477 1056.16 587.432 1057.59Z" fill="#0F0648"/>
<path d="M587.432 1057.59C586.065 1058.53 584.102 1058.11 584.102 1058.11C587.866 1057.12 585.744 1053.3 584.815 1051.9C585.981 1052.28 587.047 1052.82 587.496 1053.56C588.246 1054.81 588.477 1056.16 587.432 1057.59Z" fill="#51347E"/>
<path d="M524.466 1007.67C524.466 1007.67 517.611 1010.47 517.91 1025.56C518.209 1040.66 530.39 1048.93 530.39 1048.93L530.501 1052.13C530.501 1052.13 521.009 1048.8 516.001 1036.39C510.994 1023.98 515.727 1008.93 524.32 1006.11L524.466 1007.67Z" fill="#EC1F2D"/>
<path d="M565.703 998.714C565.703 998.714 574.27 1002.3 577.663 1014.32C581.056 1026.33 574.018 1034.35 567.105 1039.4L569.116 1044.59C569.116 1044.59 581.227 1037.76 582.843 1025.12C584.459 1012.47 576.033 1000.41 567.391 995.222L565.703 998.714Z" fill="#EC1F2D"/>
<path d="M570.882 1062.38C570.813 1063.07 564.803 1063.91 562.472 1064.26C553.081 1065.67 543.478 1066.53 533.678 1066.89C533.326 1066.9 533.009 1066.67 532.914 1066.33C530.767 1058.66 529.359 1050.8 528.604 1042.79C528.382 1040.42 528.216 1038.04 528.105 1035.65C528.071 1034.9 528.572 1034.23 529.299 1034.05C542.058 1030.9 554.679 1029.27 567.117 1029.7C567.853 1029.72 568.475 1030.26 568.613 1030.98C570.362 1040.18 571.391 1057.33 570.882 1062.38Z" fill="#CEC4D5"/>
<path d="M570.581 1060.33C570.512 1061.02 564.503 1061.86 562.171 1062.21C552.781 1063.62 543.178 1064.48 533.377 1064.84C533.025 1064.86 532.708 1064.62 532.613 1064.28C530.466 1056.61 529.059 1048.75 528.303 1040.74C528.081 1038.37 527.916 1035.99 527.805 1033.6C527.771 1032.85 528.272 1032.18 528.999 1032C541.757 1028.85 554.378 1027.22 566.816 1027.65C567.553 1027.67 568.175 1028.21 568.312 1028.93C570.061 1038.13 571.091 1055.28 570.581 1060.33Z" fill="#EDECEE"/>
<path d="M562.172 1062.21C552.908 1063.6 543.436 1064.46 533.771 1064.83C533.188 1064.85 532.664 1064.47 532.508 1063.91C530.42 1056.35 529.046 1048.62 528.304 1040.74C532.983 1049.5 543.469 1063.55 562.172 1062.21Z" fill="#DFD5E8"/>
<path d="M532.999 1038.54C532.999 1038.54 534.613 1051.98 536.484 1059.7L539.217 1059.37C539.217 1059.37 537.375 1045.94 537.087 1037.71L532.999 1038.54Z" fill="#0F0648"/>
<path d="M544.136 1036.54C544.136 1036.54 545.561 1051.14 547.18 1058.18L550.369 1057.84C550.369 1057.84 548.519 1044.17 548.232 1035.94L544.136 1036.54Z" fill="#0F0648"/>
<path d="M539.199 1039.23C539.199 1039.23 539.603 1044.26 540.18 1047.67L542.912 1047.34L541.932 1038.91C541.932 1038.91 540.333 1038.97 539.199 1039.23Z" fill="#CEC4D5"/>
<path d="M562.289 1039C562.335 1040.32 561.298 1041.43 559.974 1041.48C558.649 1041.53 557.539 1040.49 557.492 1039.17C557.446 1037.84 558.481 1036.73 559.806 1036.68C561.131 1036.64 562.243 1037.67 562.289 1039Z" fill="#3492B7"/>
<path d="M563.562 1049.25C563.609 1050.58 562.572 1051.69 561.247 1051.74C559.922 1051.78 558.811 1050.75 558.765 1049.42C558.718 1048.09 559.755 1046.98 561.08 1046.94C562.404 1046.89 563.516 1047.93 563.562 1049.25Z" fill="#D633DB"/>
<path d="M527.099 1030.57C529.358 1030.12 534.847 1029.2 540.842 1028.1C542.129 1027.87 542.171 1026.84 542.06 1026.2L541.05 1022.42C540.944 1021.81 540.374 1021.38 539.758 1021.47C537.056 1021.82 530.069 1022.05 525.722 1023.34C525.174 1023.51 524.589 1023.61 524.851 1025.38C525.006 1026.43 525.281 1028.16 525.76 1029.76C525.932 1030.33 526.511 1030.69 527.099 1030.57Z" fill="#51397E"/>
<path d="M524.466 1007.67C524.466 1007.67 525.417 1011.34 526.623 1013.13C526.623 1013.13 549.667 1024.68 568.607 1003.88C568.607 1003.88 567.519 998.88 566.068 996.642C566.068 996.642 554.522 1014.35 524.466 1007.67Z" fill="#0F0648"/>
<path d="M516.292 985.799C516.292 985.799 511.582 988.263 510.906 988.735C509.435 989.761 514.485 1005.56 516.529 1005.7C517.758 1005.79 521.969 1004.43 521.969 1004.43L516.292 985.799Z" fill="#E4DFEA"/>
<path d="M514.624 990.435C514.642 990.939 514.247 991.364 513.743 991.381C513.238 991.399 512.814 991.004 512.796 990.498C512.779 989.994 513.174 989.57 513.679 989.553C514.183 989.535 514.607 989.93 514.624 990.435Z" fill="#C7B8D2"/>
<path d="M563.797 972.362C563.797 972.362 569.088 971.868 569.911 971.896C571.703 971.958 576.044 987.968 574.403 989.198C573.419 989.936 569.145 991.084 569.145 991.084L563.797 972.362Z" fill="#E4DFEA"/>
<path d="M567.714 975.347C567.973 975.78 568.535 975.921 568.967 975.661C569.401 975.402 569.542 974.84 569.283 974.406C569.023 973.973 568.462 973.832 568.029 974.092C567.595 974.351 567.454 974.913 567.714 975.347Z" fill="#C7B8D2"/>
<path d="M529.014 964.378L528.513 962.486C532.05 959.912 536.468 958.755 541.649 958.821L542.649 961.304L529.014 964.378Z" fill="#E4DFEA"/>
<path d="M569.635 993.999L558.062 997.316L523.217 1007.3C510.348 992.416 514.316 968.947 532.166 962.358C532.993 962.052 533.816 961.787 534.636 961.559C534.641 961.557 534.643 961.556 534.647 961.554C554.236 956.096 571.936 971.958 569.635 993.999Z" fill="#E4DFEA"/>
<path d="M558.062 997.316L523.217 1007.3C510.348 992.415 514.316 968.947 532.166 962.357C532.993 962.051 533.816 961.787 534.636 961.559C522.677 966.07 521.368 973.95 532.013 971.059C542.661 968.169 550.162 970.464 550.162 970.464L558.062 997.316Z" fill="#DFD5E8"/>
<path d="M569.635 993.999C569.635 993.999 565.105 1008.35 548.298 1011.68C531.491 1015.02 523.217 1007.3 523.217 1007.3L569.635 993.999Z" fill="#E4DFEA"/>
<path d="M569.635 993.999C569.635 993.999 566.336 999.347 559.345 1003.81C551.787 1008.63 539.91 1012.42 523.217 1007.3C516.347 993.279 521.049 979.482 531.618 973.193C532.414 972.719 533.243 972.287 534.101 971.902C547.09 966.08 566.111 971.695 569.635 993.999Z" fill="#130E58"/>
<path d="M559.346 1003.81C551.787 1008.63 539.91 1012.42 523.217 1007.3C516.347 993.279 521.049 979.481 531.619 973.192C530.19 976.398 528.234 982.873 529.346 992.894C531.015 1007.94 541.223 1012.76 559.332 1003.81C559.336 1003.81 559.342 1003.81 559.346 1003.81Z" fill="#1C1B48"/>
<path d="M541.198 972.11C541.198 972.11 555.549 970.144 563.082 983.546C563.683 984.616 563.364 985.969 562.341 986.647C561.189 987.407 559.635 987.007 558.993 985.784C557.003 981.992 551.908 974.723 541.198 972.11Z" fill="#ECE7F1"/>
<path d="M565.241 989.735C565.714 990.628 565.376 991.735 564.484 992.209C563.592 992.683 562.485 992.344 562.011 991.451C561.537 990.559 561.877 989.452 562.769 988.977C563.661 988.503 564.768 988.842 565.241 989.735Z" fill="#ECE7F1"/>
<path d="M591.205 1097.49C590.37 1098.97 589.22 1099.62 588.111 1100.98L588.111 1100.99C583.35 1106.54 579.576 1113.21 577.899 1116.39C576.647 1114.61 575.693 1112.89 575.057 1111.63L575.056 1111.62C575.616 1109.62 576.966 1105.73 579.889 1101.28C585.744 1100.32 591.078 1097.59 591.205 1097.49Z" fill="#16133E"/>
<path d="M609.69 1088.93C606.602 1089.28 601.562 1090.48 595.551 1094.24C592.926 1095.89 590.405 1098.3 588.112 1100.98C589.001 1099.85 589.928 1099.44 590.764 1097.96C590.638 1098.07 585.745 1100.31 579.889 1101.28C581.1 1099.43 582.583 1097.49 584.391 1095.55C592.547 1086.8 605.967 1084.73 605.967 1084.73C606.922 1085.35 608.327 1086.83 609.69 1088.93Z" fill="#0F0648"/>
<path d="M529.897 1118.45C529.718 1118.5 529.621 1118.52 529.621 1118.52C529.21 1120.45 528.788 1122.19 528.358 1123.76C527.277 1121.94 525.602 1119.63 523.056 1117.13C523.39 1116.87 523.727 1116.64 524.059 1116.43C525.01 1115.84 525.876 1115.16 526.709 1114.39C528.155 1116.1 529.248 1117.55 529.897 1118.45Z" fill="#16133E"/>
<path d="M526.709 1114.39C525.876 1115.16 525.01 1115.84 524.059 1116.43C523.728 1116.64 523.39 1116.87 523.056 1117.13C520.84 1114.94 517.962 1112.62 514.242 1110.37C504.884 1104.69 496.397 1105.2 492.041 1106.06C492.409 1105.08 492.862 1104.17 493.344 1103.35C493.826 1102.52 494.338 1101.78 494.832 1101.14L494.832 1101.14C494.832 1101.14 494.833 1101.14 494.837 1101.14C494.843 1101.13 494.863 1101.1 494.892 1101.06C494.904 1101.05 494.916 1101.03 494.929 1101.02C494.933 1101.01 494.939 1101 494.944 1101C494.951 1100.99 494.955 1100.98 494.962 1100.98L495.014 1100.91C495.056 1100.85 495.095 1100.8 495.137 1100.75C495.176 1100.7 495.215 1100.65 495.258 1100.6C495.402 1100.43 495.543 1100.26 495.681 1100.1C496.481 1100.01 497.411 1099.93 498.444 1099.9C502.407 1099.77 507.861 1100.24 513.065 1102.86C518.624 1105.66 523.52 1110.62 526.709 1114.39Z" fill="#0F0648"/>
<path d="M599.963 1047.16C599.369 1047.44 598.731 1047.7 598.047 1047.93C597.562 1048.09 597.067 1048.22 596.57 1048.32C595.062 1046.13 593.864 1043.91 592.916 1041.71C594.21 1041.64 595.41 1041.41 596.518 1041.07C597.737 1043.77 598.975 1045.77 599.963 1047.16Z" fill="#16133E"/>
<path d="M596.519 1041.07C595.409 1041.41 594.211 1041.64 592.916 1041.71C588.453 1031.34 589.59 1021.39 590.591 1016.59L590.593 1016.59C591.465 1015.95 592.375 1015.44 593.236 1015.06C592.165 1020.03 592.184 1029.14 594.924 1037.05C595.436 1038.53 595.975 1039.87 596.519 1041.07Z" fill="#0F0648"/>
<path d="M505.746 1054.48C504.95 1057.87 503.802 1060.3 502.831 1061.91C500.866 1062.21 498.99 1062.21 497.226 1061.99C499.239 1059.9 500.707 1057.6 501.761 1055.26C503.322 1055.19 504.664 1054.87 505.746 1054.48Z" fill="#2C2144"/>
<path d="M505.746 1054.48C504.664 1054.87 503.323 1055.19 501.761 1055.26C505.386 1047.2 504.151 1038.49 503.447 1035.1C503.988 1035.65 504.225 1036.1 504.304 1036.26C504.306 1036.27 504.306 1036.27 504.306 1036.27C504.326 1036.31 504.336 1036.34 504.336 1036.34C504.335 1036.33 504.338 1036.33 504.34 1036.32L504.34 1036.32C504.49 1035.11 504.808 1034.21 505.192 1033.54C505.25 1033.44 505.311 1033.34 505.372 1033.25C507.314 1042.63 506.898 1049.57 505.746 1054.48Z" fill="#0F0648"/>
<path d="M527.294 1029.65C529.554 1029.2 535.298 1028.09 541.038 1027.18C541.677 1027.08 542.11 1026.48 542 1025.84L541.246 1021.5C541.139 1020.88 540.57 1020.46 539.953 1020.54C537.251 1020.9 530.208 1021.89 525.861 1023.19C525.311 1023.35 524.967 1023.89 525.047 1024.46C525.191 1025.51 525.478 1027.23 525.957 1028.84C526.128 1029.41 526.707 1029.76 527.294 1029.65Z" fill="#CEC4D5"/>
<path d="M490.04 1052.63C487.671 1053.47 485.443 1053.73 483.486 1053.67C478.919 1053.55 475.83 1051.76 475.83 1051.76C475.83 1051.76 475.625 1052.16 474.914 1052.53C474.909 1052.53 474.904 1052.53 474.899 1052.54C473.981 1053.01 472.229 1053.44 469.011 1052.91C463.26 1051.97 461.321 1048.83 461.469 1046.54C461.513 1045.88 461.914 1045.4 462.504 1045.05C462.504 1045.05 462.505 1045.05 462.51 1045.04C463.989 1044.16 466.642 1044.07 467.785 1044.03C469.383 1043.97 469.825 1043.5 469.1 1042.38C469.064 1042.32 469.02 1042.27 468.971 1042.22C468.038 1041.25 464.846 1041.1 463.072 1040.07C461.206 1038.99 460.204 1036.51 460.345 1033.99C460.416 1032.75 461.558 1032.08 463.061 1031.9C464.612 1031.71 466.542 1032.04 468.078 1032.8C471.104 1034.3 472.23 1033.8 472.402 1032.19C472.525 1031.05 470.216 1029.42 468.103 1027.86C467.236 1027.22 466.403 1026.6 465.784 1026.02C463.656 1024.03 465.119 1020.09 468.986 1019.5C469.394 1019.43 469.769 1019.45 470.119 1019.53L470.121 1019.53C473.104 1020.21 474.213 1025.42 476.03 1024.74C478.062 1023.99 476.628 1022.2 474.012 1019.32C473.668 1018.94 473.316 1018.53 472.973 1018.1C470.705 1015.22 468.779 1011.34 471.494 1009.45C472.117 1009.02 472.87 1008.92 473.703 1009.1C477.045 1009.82 481.66 1015.04 484.26 1021.37C485.209 1023.67 485.95 1025.1 486.527 1025.98C487.534 1027.51 488.032 1027.34 488.232 1027.12C488.309 1027.03 488.342 1026.94 488.342 1026.94C489.106 1025.89 489.78 1019 490.313 1014.63C490.401 1013.92 490.504 1013.24 490.63 1012.58C491.285 1009.21 492.501 1006.7 494.594 1006.24C494.967 1006.16 495.307 1006.12 495.623 1006.12C497.426 1006.15 498.336 1007.64 498.652 1011.13C498.731 1012.01 498.715 1012.83 498.643 1013.62C498.366 1016.59 497.285 1019.2 497.224 1022.63C497.148 1026.98 499.6 1031.7 500.256 1037.4C500.913 1043.1 497.947 1049.84 490.04 1052.63Z" fill="#E4DFEA"/>
<path d="M477.775 1015.76C477.403 1018.2 474.726 1018.3 472.973 1018.1C472.724 1017.78 472.482 1017.46 472.249 1017.12C470.34 1014.4 469.075 1011.13 471.493 1009.45C472.117 1009.02 472.871 1008.92 473.704 1009.1C474.399 1010.01 475.838 1011.18 476.812 1012.56C477.493 1013.53 477.949 1014.6 477.775 1015.76Z" fill="#E4DFEA"/>
<path d="M472.832 1024.85C472.326 1026.36 470.792 1028.5 468.103 1027.86C467.375 1027.33 466.671 1026.8 466.098 1026.3C465.987 1026.2 465.882 1026.11 465.783 1026.02C463.655 1024.03 465.119 1020.09 468.986 1019.5C469.394 1019.43 469.769 1019.45 470.119 1019.53L470.121 1019.53C470.682 1020.17 471.627 1021.32 472.255 1022.47C472.258 1022.47 472.259 1022.47 472.259 1022.47C472.745 1023.35 473.043 1024.23 472.832 1024.85Z" fill="#E4DFEA"/>
<path d="M470.242 1042.34C469.955 1042.38 469.515 1042.33 468.971 1042.22C468.204 1042.01 467.509 1041.82 466.862 1041.62C465.466 1041.21 464.284 1040.77 463.072 1040.07C461.205 1038.99 460.204 1036.51 460.344 1033.99C460.415 1032.75 461.558 1032.08 463.061 1031.9C464.049 1032.81 465.817 1034.32 467.237 1034.89C467.65 1035.06 468.085 1035.25 468.513 1035.46C470.254 1036.33 471.949 1037.52 472.17 1038.61C472.446 1039.97 472.289 1042.04 470.242 1042.34Z" fill="#E4DFEA"/>
<path d="M474.913 1052.53C474.909 1052.53 474.905 1052.53 474.9 1052.54C474.062 1052.97 472.529 1053.36 469.825 1053.03C469.564 1053 469.293 1052.96 469.011 1052.91C463.26 1051.97 461.321 1048.83 461.469 1046.54C461.513 1045.88 461.914 1045.4 462.503 1045.05C462.503 1045.05 462.506 1045.05 462.51 1045.04C462.65 1044.99 464.99 1044.21 470.394 1046.68C470.556 1046.76 470.714 1046.83 470.87 1046.9C476.048 1049.33 477.273 1050.94 474.913 1052.53Z" fill="#E4DFEA"/>
<path d="M484.063 1041.96C483.925 1041.68 479.844 1033.09 486.528 1025.98C487.535 1027.51 488.032 1027.34 488.232 1027.12L488.359 1027.4C488.359 1027.4 482.026 1035.85 484.063 1041.96Z" fill="#C7B8D2"/>
<path d="M490.04 1052.63C487.671 1053.47 485.443 1053.72 483.486 1053.67C497.627 1050.93 496.291 1037.72 494.749 1033.58C492.983 1028.84 492.75 1022.21 495.489 1015.48C497.5 1010.53 496.367 1007.42 495.624 1006.12C497.426 1006.15 498.336 1007.64 498.652 1011.13C498.731 1012.01 498.716 1012.83 498.644 1013.62C498.367 1016.59 497.285 1019.2 497.225 1022.63C497.148 1026.98 499.6 1031.7 500.256 1037.4C500.913 1043.09 497.947 1049.83 490.04 1052.63Z" fill="#C9BCD1"/>
<path d="M498.643 1013.62C495.172 1015.14 492.172 1013.66 490.629 1012.59C491.285 1009.21 492.501 1006.7 494.593 1006.24C497.09 1005.7 498.28 1007.03 498.652 1011.13C498.73 1012.01 498.715 1012.83 498.643 1013.62Z" fill="#0F0648"/>
<path d="M477.774 1015.76C477.403 1018.2 472.751 1019.25 472.249 1017.12C472.861 1012.6 475.444 1012.36 476.812 1012.57C477.493 1013.53 477.949 1014.6 477.774 1015.76Z" fill="#0F0648"/>
<path d="M472.833 1024.85C472.611 1028.51 467.368 1028.82 466.098 1026.3C465.745 1025.18 465.725 1023.81 466.806 1022.55C469.172 1019.78 472.132 1022.36 472.255 1022.47C472.258 1022.47 472.26 1022.47 472.26 1022.47C472.746 1023.35 472.873 1024.19 472.833 1024.85Z" fill="#0F0648"/>
<path d="M470.242 1042.34C469.955 1042.38 469.515 1042.33 468.971 1042.22C468.204 1042.01 467.509 1041.82 466.862 1041.62C466.066 1038.48 467.532 1036.43 468.513 1035.46C470.254 1036.33 471.949 1037.52 472.17 1038.61C472.446 1039.97 472.289 1042.04 470.242 1042.34Z" fill="#0F0648"/>
<path d="M474.914 1052.53C474.909 1052.53 474.905 1052.53 474.9 1052.54C474.062 1052.97 472.53 1053.36 469.825 1053.03C469.236 1052.08 468.93 1050.62 469.339 1049.24C469.73 1047.91 470.419 1047.23 470.87 1046.9C476.048 1049.33 477.273 1050.94 474.914 1052.53Z" fill="#0F0648"/>
<path d="M605.37 1040.6C607.823 1041.14 610.065 1041.13 612.003 1040.84C616.521 1040.17 619.37 1038.01 619.37 1038.01C619.37 1038.01 619.622 1038.39 620.374 1038.67C620.379 1038.67 620.384 1038.67 620.389 1038.68C621.358 1039.04 623.149 1039.25 626.281 1038.34C631.875 1036.71 633.423 1033.36 632.999 1031.1C632.877 1030.46 632.421 1030.03 631.793 1029.75C631.793 1029.75 631.791 1029.75 631.786 1029.75C630.212 1029.05 627.566 1029.27 626.428 1029.37C624.833 1029.51 624.338 1029.09 624.924 1027.89C624.953 1027.83 624.99 1027.78 625.033 1027.72C625.842 1026.64 628.991 1026.11 630.629 1024.88C632.353 1023.58 633.048 1021 632.605 1018.51C632.385 1017.28 631.17 1016.76 629.656 1016.76C628.094 1016.76 626.218 1017.33 624.784 1018.26C621.961 1020.11 620.783 1019.76 620.419 1018.18C620.16 1017.07 622.257 1015.17 624.166 1013.36C624.949 1012.62 625.701 1011.9 626.246 1011.25C628.119 1009.02 626.192 1005.29 622.282 1005.17C621.871 1005.15 621.5 1005.21 621.161 1005.34L621.159 1005.34C618.279 1006.37 617.806 1011.68 615.921 1011.22C613.813 1010.72 615.022 1008.77 617.273 1005.6C617.567 1005.18 617.867 1004.73 618.154 1004.26C620.061 1001.13 621.506 997.041 618.583 995.498C617.913 995.143 617.153 995.135 616.347 995.416C613.116 996.531 609.164 1002.27 607.345 1008.86C606.68 1011.27 606.117 1012.78 605.649 1013.72C604.833 1015.36 604.319 1015.25 604.094 1015.05C604.007 1014.98 603.963 1014.89 603.963 1014.89C603.078 1013.94 601.58 1007.18 600.524 1002.91C600.353 1002.22 600.167 1001.55 599.963 1000.91C598.907 997.648 597.397 995.298 595.265 995.097C594.885 995.06 594.542 995.062 594.229 995.105C592.442 995.351 591.718 996.933 591.824 1000.44C591.852 1001.32 591.965 1002.13 592.134 1002.91C592.765 1005.82 594.153 1008.28 594.626 1011.68C595.226 1015.99 593.36 1020.97 593.394 1026.71C593.428 1032.44 597.184 1038.78 605.37 1040.6Z" fill="#E4DFEA"/>
<path d="M613.108 1002.51C613.771 1004.9 616.441 1004.67 618.155 1004.26C618.365 1003.91 618.566 1003.56 618.758 1003.2C620.324 1000.27 621.187 996.875 618.584 995.499C617.914 995.143 617.153 995.134 616.347 995.415C615.767 996.404 614.48 997.739 613.679 999.228C613.119 1000.27 612.795 1001.38 613.108 1002.51Z" fill="#E4DFEA"/>
<path d="M619.109 1010.95C619.792 1012.38 621.573 1014.32 624.166 1013.36C624.823 1012.74 625.459 1012.13 625.969 1011.57C626.068 1011.46 626.159 1011.36 626.247 1011.25C628.119 1009.02 626.192 1005.29 622.282 1005.17C621.871 1005.15 621.499 1005.21 621.16 1005.34L621.158 1005.34C620.68 1006.04 619.88 1007.3 619.394 1008.51C619.392 1008.51 619.389 1008.51 619.389 1008.51C619.013 1009.44 618.823 1010.35 619.109 1010.95Z" fill="#E4DFEA"/>
<path d="M623.786 1027.99C624.075 1028 624.507 1027.9 625.033 1027.72C625.769 1027.42 626.436 1027.15 627.055 1026.87C628.391 1026.29 629.511 1025.72 630.629 1024.88C632.353 1023.58 633.049 1021 632.606 1018.51C632.385 1017.28 631.17 1016.76 629.656 1016.76C628.786 1017.78 627.212 1019.5 625.872 1020.24C625.482 1020.45 625.073 1020.7 624.675 1020.96C623.051 1022.02 621.511 1023.41 621.423 1024.52C621.312 1025.91 621.717 1027.94 623.786 1027.99Z" fill="#E4DFEA"/>
<path d="M620.375 1038.67C620.38 1038.67 620.385 1038.68 620.39 1038.68C621.273 1039.01 622.842 1039.21 625.487 1038.55C625.741 1038.49 626.005 1038.42 626.281 1038.34C631.876 1036.71 633.423 1033.36 632.999 1031.1C632.877 1030.46 632.421 1030.03 631.793 1029.75C631.793 1029.75 631.792 1029.75 631.787 1029.75C631.642 1029.71 629.225 1029.22 624.158 1032.32C624.005 1032.42 623.858 1032.51 623.711 1032.6C618.863 1035.63 617.842 1037.38 620.375 1038.67Z" fill="#E4DFEA"/>
<path d="M610.02 1029.29C610.123 1028.99 613.14 1019.97 605.649 1013.72C604.834 1015.36 604.32 1015.25 604.094 1015.05L604.003 1015.35C604.003 1015.35 611.306 1022.98 610.02 1029.29Z" fill="#C7B8D2"/>
<path d="M605.37 1040.6C607.823 1041.14 610.065 1041.13 612.003 1040.84C597.634 1039.83 597.37 1026.55 598.402 1022.26C599.585 1017.34 599.017 1010.73 595.488 1004.37C592.897 999.705 593.648 996.484 594.229 995.105C592.442 995.351 591.718 996.933 591.824 1000.44C591.852 1001.32 591.965 1002.13 592.134 1002.91C592.765 1005.82 594.152 1008.28 594.626 1011.68C595.226 1015.99 593.36 1020.97 593.394 1026.71C593.428 1032.44 597.184 1038.78 605.37 1040.6Z" fill="#C9BCD1"/>
<path d="M592.114 1002.94C595.762 1004.03 598.577 1002.19 599.986 1000.93C598.925 997.64 597.407 995.277 595.263 995.075C592.704 994.833 591.679 996.307 591.803 1000.45C591.83 1001.33 591.945 1002.15 592.114 1002.94Z" fill="#0F0648"/>
<path d="M613.107 1002.51C613.771 1004.9 618.515 1005.37 618.757 1003.2C617.604 998.782 615.011 998.856 613.679 999.228C613.118 1000.27 612.795 1001.38 613.107 1002.51Z" fill="#0F0648"/>
<path d="M619.109 1010.95C619.769 1014.55 625.011 1014.23 625.969 1011.57C626.184 1010.41 626.039 1009.06 624.814 1007.93C622.131 1005.46 619.503 1008.38 619.394 1008.51C619.392 1008.51 619.39 1008.51 619.39 1008.51C619.014 1009.44 618.989 1010.29 619.109 1010.95Z" fill="#0F0648"/>
<path d="M623.786 1027.99C624.075 1028 624.507 1027.9 625.032 1027.72C625.768 1027.42 626.436 1027.15 627.055 1026.87C627.466 1023.65 625.765 1021.8 624.675 1020.96C623.051 1022.02 621.51 1023.41 621.422 1024.52C621.312 1025.91 621.717 1027.94 623.786 1027.99Z" fill="#0F0648"/>
<path d="M620.374 1038.67C620.379 1038.67 620.384 1038.68 620.389 1038.68C621.272 1039.01 622.841 1039.21 625.486 1038.55C625.957 1037.54 626.083 1036.06 625.511 1034.73C624.964 1033.46 624.197 1032.86 623.71 1032.6C618.862 1035.63 617.841 1037.38 620.374 1038.67Z" fill="#0F0648"/>
<path d="M589.225 1166.98C589.225 1166.98 587.456 1160.32 588.021 1156.87C588.586 1153.42 610.018 1105.75 635.893 1106.68L589.225 1166.98Z" fill="#ACA4B5"/>
<path d="M594.796 1183.87C594.796 1183.87 589.163 1179.06 589.134 1163.83C589.104 1148.59 621.821 1096.64 640.296 1108.35L594.796 1183.87Z" fill="#E4DFEA"/>
<path d="M644.526 1127.48C644.499 1128.1 644.462 1128.73 644.416 1129.37C644.195 1132.53 643.776 1135.95 643.126 1139.57C643.019 1140.17 642.905 1140.77 642.782 1141.39C642.162 1144.53 641.367 1147.81 640.379 1151.2C640.206 1151.78 640.032 1152.37 639.85 1152.95C638.685 1156.72 637.279 1160.6 635.601 1164.55C635.365 1165.11 635.122 1165.67 634.871 1166.24C633.396 1169.58 631.726 1172.96 629.844 1176.36C629.545 1176.9 629.241 1177.44 628.931 1177.98C627.261 1180.9 625.432 1183.82 623.435 1186.73C623.271 1186.97 623.104 1187.21 622.937 1187.46C622.934 1187.46 622.934 1187.46 622.932 1187.46C622.535 1187.68 622.138 1187.89 621.738 1188.09C607.784 1194.88 591.567 1184.93 591.733 1178.02C591.735 1177.96 591.739 1177.88 591.746 1177.8C591.781 1177.36 591.882 1176.74 592.048 1175.97C592.514 1173.79 593.466 1170.37 594.785 1166.27C594.966 1165.7 595.156 1165.12 595.352 1164.53C596.424 1161.28 597.695 1157.68 599.105 1153.97C599.32 1153.4 599.541 1152.83 599.761 1152.26C601.242 1148.45 602.86 1144.56 604.553 1140.85C604.808 1140.29 605.067 1139.73 605.325 1139.18C606.847 1135.94 608.42 1132.87 610.007 1130.14C610.326 1129.6 610.648 1129.06 610.968 1128.54C611.353 1127.91 611.738 1127.31 612.123 1126.73C613.76 1124.28 615.435 1122.03 617.124 1120.01C617.552 1119.5 617.98 1119 618.409 1118.52C621.698 1114.81 625.004 1111.95 628.131 1110.01C628.856 1109.56 629.571 1109.16 630.275 1108.81C634.101 1106.9 637.565 1106.47 640.273 1107.67C641.597 1108.25 642.737 1110.24 643.513 1113.35C643.678 1114 643.822 1114.69 643.952 1115.44C644.513 1118.66 644.747 1122.75 644.526 1127.48Z" fill="#BAADC4"/>
<path d="M643.952 1115.44L628.131 1110.01C628.856 1109.56 629.571 1109.16 630.275 1108.81L643.513 1113.35C643.678 1114 643.822 1114.69 643.952 1115.44Z" fill="#978BA4"/>
<path d="M644.526 1127.48C644.499 1128.1 644.462 1128.73 644.416 1129.38L617.123 1120.01C617.551 1119.5 617.979 1119 618.409 1118.52L644.526 1127.48Z" fill="#978BA4"/>
<path d="M643.126 1139.57C643.019 1140.17 642.904 1140.78 642.781 1141.39L610.007 1130.14C610.325 1129.6 610.648 1129.06 610.968 1128.54L643.126 1139.57Z" fill="#978BA4"/>
<path d="M640.379 1151.2C640.207 1151.78 640.033 1152.37 639.85 1152.95L604.553 1140.85C604.808 1140.29 605.067 1139.73 605.325 1139.18L640.379 1151.2Z" fill="#978BA4"/>
<path d="M635.601 1164.55C635.365 1165.11 635.122 1165.68 634.871 1166.24L599.104 1153.97C599.32 1153.4 599.54 1152.83 599.761 1152.26L635.601 1164.55Z" fill="#978BA4"/>
<path d="M629.844 1176.36C629.545 1176.9 629.241 1177.44 628.931 1177.98L594.784 1166.27C594.965 1165.7 595.155 1165.12 595.352 1164.53L629.844 1176.36Z" fill="#978BA4"/>
<path d="M623.435 1186.73C623.271 1186.97 623.104 1187.22 622.937 1187.46C622.934 1187.46 622.934 1187.46 622.932 1187.46C622.535 1187.68 622.138 1187.89 621.738 1188.09L591.746 1177.8C591.781 1177.36 591.882 1176.74 592.048 1175.97L623.435 1186.73Z" fill="#978BA4"/>
<path d="M525.994 1177.66C525.994 1177.66 523.613 1171.2 521.166 1168.7C518.719 1166.2 473.786 1139.55 453.154 1155.21L525.994 1177.66Z" fill="#ACA4B5"/>
<path d="M531.146 1194.68C531.146 1194.68 532.987 1187.51 524.255 1175.03C515.521 1162.55 458.895 1138.9 450.516 1159.11L531.146 1194.68Z" fill="#E4DFEA"/>
<path d="M458.052 1177.19C458.431 1177.68 458.823 1178.18 459.231 1178.68C461.229 1181.14 463.536 1183.69 466.149 1186.28C466.58 1186.7 467.022 1187.13 467.474 1187.57C469.788 1189.78 472.326 1192.01 475.082 1194.21C475.556 1194.58 476.035 1194.96 476.522 1195.34C479.639 1197.74 483.021 1200.11 486.665 1202.38C487.18 1202.7 487.702 1203.02 488.23 1203.33C491.356 1205.22 494.669 1207.02 498.162 1208.72C498.717 1208.99 499.276 1209.26 499.841 1209.52C502.883 1210.94 506.059 1212.28 509.366 1213.51C509.639 1213.62 509.914 1213.72 510.191 1213.82C510.194 1213.82 510.195 1213.82 510.197 1213.82C510.65 1213.77 511.094 1213.71 511.534 1213.64C526.849 1211.16 534.394 1193.69 530.291 1188.14C530.249 1188.08 530.202 1188.02 530.15 1187.96C529.871 1187.62 529.432 1187.18 528.849 1186.63C527.216 1185.12 524.474 1182.88 521.037 1180.28C520.562 1179.92 520.072 1179.55 519.57 1179.18C516.826 1177.14 513.717 1174.93 510.431 1172.71C509.929 1172.37 509.421 1172.03 508.912 1171.69C505.508 1169.42 501.95 1167.17 498.432 1165.11C497.901 1164.8 497.368 1164.49 496.84 1164.19C493.733 1162.42 490.682 1160.81 487.819 1159.5C487.242 1159.23 486.67 1158.98 486.108 1158.74C485.434 1158.45 484.772 1158.18 484.126 1157.93C481.376 1156.86 478.715 1155.99 476.173 1155.31C475.529 1155.14 474.891 1154.97 474.262 1154.83C469.439 1153.69 465.092 1153.25 461.417 1153.46C460.565 1153.51 459.75 1153.6 458.974 1153.72C454.747 1154.36 451.67 1156 450.141 1158.54C449.393 1159.78 449.605 1162.06 450.757 1165.05C450.995 1165.68 451.277 1166.33 451.598 1167.01C452.993 1169.97 455.15 1173.45 458.052 1177.19Z" fill="#BAADC4"/>
<path d="M451.597 1167.01L461.417 1153.46C460.564 1153.51 459.749 1153.6 458.973 1153.72L450.756 1165.05C450.995 1165.68 451.276 1166.33 451.597 1167.01Z" fill="#978BA4"/>
<path d="M458.051 1177.19C458.43 1177.68 458.823 1178.18 459.231 1178.68L476.173 1155.31C475.529 1155.14 474.891 1154.97 474.262 1154.83L458.051 1177.19Z" fill="#978BA4"/>
<path d="M466.147 1186.28C466.579 1186.7 467.02 1187.13 467.473 1187.57L487.819 1159.5C487.242 1159.23 486.671 1158.98 486.109 1158.74L466.147 1186.28Z" fill="#978BA4"/>
<path d="M475.081 1194.21C475.555 1194.58 476.034 1194.96 476.522 1195.34L498.431 1165.11C497.901 1164.8 497.367 1164.49 496.839 1164.19L475.081 1194.21Z" fill="#978BA4"/>
<path d="M486.664 1202.38C487.179 1202.7 487.702 1203.02 488.23 1203.33L510.43 1172.71C509.929 1172.37 509.421 1172.03 508.911 1171.68L486.664 1202.38Z" fill="#978BA4"/>
<path d="M498.161 1208.72C498.717 1208.99 499.276 1209.26 499.841 1209.52L521.037 1180.28C520.562 1179.92 520.071 1179.55 519.569 1179.18L498.161 1208.72Z" fill="#978BA4"/>
<path d="M509.366 1213.51C509.638 1213.62 509.914 1213.72 510.19 1213.82C510.193 1213.82 510.195 1213.82 510.197 1213.82C510.649 1213.77 511.094 1213.71 511.533 1213.64L530.15 1187.96C529.869 1187.62 529.43 1187.18 528.849 1186.63L509.366 1213.51Z" fill="#978BA4"/>
<path d="M561.031 1023.34C559.859 1023.52 558.778 1022.82 558.46 1021.66C558.169 1020.61 558.715 1019.45 559.714 1019.01C560.624 1018.61 561.456 1018.77 562.214 1019.39C562.361 1019.51 562.356 1019.63 562.213 1019.76C562.133 1019.83 562.052 1019.9 561.973 1019.97C561.787 1020.14 561.734 1020.14 561.558 1019.97C561.39 1019.8 561.178 1019.68 560.948 1019.63C560.39 1019.5 559.853 1019.73 559.54 1020.22C559.088 1020.93 559.299 1021.9 560 1022.35C560.595 1022.74 561.394 1022.58 561.785 1021.98C561.787 1021.98 561.787 1021.98 561.789 1021.98C561.82 1021.93 561.851 1021.88 561.88 1021.83C561.964 1021.68 562.039 1021.65 562.192 1021.72C562.317 1021.77 562.441 1021.82 562.564 1021.88C562.719 1021.95 562.75 1022.05 562.664 1022.2C562.313 1022.82 561.72 1023.23 561.031 1023.34Z" fill="#111111"/>
<path d="M567.364 1022.29C566.88 1022.35 567.021 1022.41 566.674 1022.05C565.624 1020.95 564.575 1019.84 563.53 1018.74C563.513 1018.72 563.497 1018.71 563.482 1018.69C563.374 1018.56 563.426 1018.39 563.593 1018.36C563.79 1018.32 563.989 1018.3 564.187 1018.27C564.279 1018.25 564.339 1018.3 564.394 1018.37C564.681 1018.7 564.968 1019.04 565.255 1019.38C565.278 1019.41 565.299 1019.43 565.323 1019.46C565.441 1019.58 565.592 1019.55 565.658 1019.4C565.763 1019.16 565.862 1018.91 565.963 1018.66C566.041 1018.48 566.12 1018.29 566.194 1018.1C566.236 1017.99 566.304 1017.93 566.422 1017.91C566.598 1017.89 566.773 1017.86 566.948 1017.83C567.037 1017.82 567.109 1017.84 567.161 1017.91C567.211 1017.98 567.2 1018.05 567.164 1018.13C566.858 1018.76 566.551 1019.4 566.244 1020.03C566.17 1020.19 566.176 1020.23 566.293 1020.35C566.777 1020.86 567.26 1021.37 567.746 1021.87C567.813 1021.94 567.869 1022.02 567.831 1022.12C567.794 1022.22 567.709 1022.24 567.617 1022.25C567.601 1022.25 567.586 1022.25 567.57 1022.25L567.364 1022.29Z" fill="#111111"/>
<path d="M567.009 1016.75C567.014 1016.79 567.02 1016.82 567.025 1016.86C567.055 1017.1 566.928 1017.28 566.71 1017.32C566.481 1017.36 566.294 1017.23 566.249 1016.99C566.172 1016.58 566.057 1016.17 565.848 1015.8C565.261 1014.77 564.383 1014.15 563.194 1013.99C562.917 1013.96 562.641 1013.98 562.365 1014C562.204 1014.02 562.066 1013.97 561.977 1013.83C561.886 1013.68 561.883 1013.52 561.973 1013.37C562.038 1013.26 562.142 1013.22 562.26 1013.2C562.825 1013.12 563.384 1013.15 563.931 1013.31C565.007 1013.63 565.837 1014.27 566.428 1015.22C566.721 1015.69 566.906 1016.21 567.009 1016.75Z" fill="#F1791C"/>
<path d="M565.638 1016.89C565.667 1017.04 565.693 1017.14 565.669 1017.25C565.627 1017.43 565.481 1017.55 565.271 1017.55C565.099 1017.56 564.946 1017.44 564.908 1017.27C564.835 1016.95 564.751 1016.64 564.559 1016.36C564.108 1015.72 563.502 1015.4 562.711 1015.47C562.398 1015.49 562.23 1015.39 562.184 1015.14C562.138 1014.88 562.268 1014.69 562.525 1014.65C562.98 1014.59 563.447 1014.64 563.874 1014.82C564.69 1015.14 565.227 1015.73 565.538 1016.54C565.586 1016.67 565.613 1016.81 565.638 1016.89Z" fill="#E63B1F"/>
<path d="M563.484 1020.8C563.611 1021.4 563.738 1022 563.866 1022.59C563.901 1022.76 563.842 1022.84 563.675 1022.87C563.523 1022.89 563.37 1022.92 563.218 1022.94C563.065 1022.96 562.986 1022.91 562.96 1022.75C562.934 1022.58 562.911 1022.42 562.888 1022.25C562.745 1021.21 562.601 1020.18 562.457 1019.14C562.428 1018.93 562.481 1018.86 562.69 1018.83C563.043 1018.79 563.049 1018.79 563.124 1019.13C563.248 1019.69 563.364 1020.25 563.483 1020.8L563.484 1020.8Z" fill="#111111"/>
<path d="M562.759 1016.14C563.382 1016.06 564.007 1016.47 564.201 1017.07C564.231 1017.17 564.263 1017.27 564.27 1017.37C564.285 1017.57 564.141 1017.75 563.924 1017.79C563.729 1017.82 563.549 1017.7 563.496 1017.5C563.465 1017.39 563.437 1017.28 563.365 1017.19C563.227 1017 563.039 1016.94 562.817 1016.96C562.525 1016.98 562.327 1016.75 562.372 1016.47C562.403 1016.27 562.528 1016.16 562.759 1016.14Z" fill="#E29D16"/>
<path d="M564.566 1022.73C564.487 1022.74 564.406 1022.75 564.326 1022.76C564.235 1022.78 564.147 1022.79 564.085 1022.7C564.019 1022.62 564.05 1022.53 564.092 1022.44C564.231 1022.16 564.369 1021.87 564.507 1021.59C564.584 1021.43 564.66 1021.27 564.738 1021.11C564.808 1020.97 564.889 1020.94 565.04 1020.98C565.173 1021.02 565.303 1021.07 565.435 1021.11C565.604 1021.17 565.652 1021.27 565.575 1021.43C565.394 1021.81 565.207 1022.19 565.024 1022.57C564.998 1022.63 564.941 1022.67 564.875 1022.68C564.772 1022.69 564.669 1022.71 564.566 1022.73L564.566 1022.73Z" fill="#111111"/>
<path d="M562.479 1017.27C562.799 1017.22 563.099 1017.43 563.15 1017.75C563.194 1018.07 562.976 1018.37 562.659 1018.42C562.339 1018.47 562.041 1018.25 561.993 1017.93C561.939 1017.62 562.148 1017.32 562.459 1017.27C562.466 1017.27 562.472 1017.27 562.479 1017.27Z" fill="#111111"/>
<path d="M253.853 240.902L254.563 236.671C254.563 236.671 248.065 217.155 238.524 206.961C225.438 206.101 212.576 209.065 199.959 214.568L199.643 218.424L253.853 240.902Z" fill="#FFF8E7"/>
<path d="M199.682 218.419C210.049 225.031 219.345 233.189 227.247 242.609C236.102 243.329 245.014 242.73 253.692 240.833C249.778 229.568 243.602 219.222 235.544 210.432C222.801 209.113 210.753 213.2 199.682 218.419Z" fill="#D15F5E"/>
<path d="M135.89 81.5988C150.302 90.4938 162.733 106.29 172.816 120.195L177.773 119.539C170.545 103.883 158.056 90.9296 144.284 80.5477C141.443 80.2753 138.576 80.6337 135.89 81.5988Z" fill="#FFF8E7"/>
<path d="M135.89 81.5988C129.758 84.4776 123.948 87.9988 118.559 92.1047C126.69 110.618 136.697 127.692 149.279 142.569C157.854 135.916 165.739 128.423 172.816 120.194C160.706 103.319 148.455 89.2656 135.89 81.5988Z" fill="#F8DFC9"/>
<path d="M140.11 115.377C140.992 122.566 142.941 129.583 145.894 136.197C135.573 122.752 126.95 108.085 120.219 92.5295C125.112 88.9129 130.347 85.7806 135.847 83.1781C137.765 84.3887 139.622 85.6943 141.409 87.0918C138.27 95.8396 138.89 106.691 140.11 115.377Z" fill="#E8A699"/>
<path d="M142.043 121.9L141.792 121.6C136.255 114.904 131.952 107.276 129.085 99.0733L128.957 98.717L129.181 98.4251C129.43 98.0995 129.72 97.698 130.034 97.2529L130.694 96.3687C129.238 93.1964 127.278 90.2814 124.89 87.7358C125.28 87.4824 125.65 87.2306 126.043 86.998C128.458 89.6187 130.414 92.626 131.831 95.8952L131.952 96.0407L130.242 98.3653C133.095 106.372 137.272 113.842 142.6 120.464C144.028 120.205 145.452 119.914 146.847 119.629C148.242 119.344 149.931 118.999 151.498 118.721L151.904 118.667L152.158 118.986C155.429 123.326 158.336 127.927 160.85 132.745C160.52 133.071 160.177 133.379 159.836 133.696C157.376 128.952 154.532 124.416 151.332 120.135C149.912 120.384 148.498 120.672 147.123 120.954C145.749 121.238 144.029 121.586 142.452 121.866L142.043 121.9Z" fill="white"/>
<path d="M142.45 121.009L142.33 120.863C136.817 114.183 132.534 106.577 129.681 98.3991L129.658 98.2207L129.754 98.1071L130.607 96.9349C130.871 96.5671 131.135 96.1992 131.376 95.8849C129.942 92.7197 128.018 89.8021 125.672 87.2389L126.244 86.8403C128.648 89.4927 130.614 92.5118 132.069 95.7831L132.153 95.9636L132.023 96.1221C131.756 96.4711 131.449 96.894 131.172 97.3141L130.403 98.3641C133.208 106.341 137.386 113.766 142.75 120.303C144.248 120.035 145.75 119.724 147.204 119.431C148.658 119.137 150.278 118.802 151.845 118.525L152.043 118.499L152.166 118.663C155.491 123.059 158.435 127.731 160.966 132.629L160.454 133.11C157.94 128.236 155.016 123.585 151.714 119.207C150.226 119.475 148.762 119.769 147.289 120.075C145.817 120.381 144.205 120.706 142.638 120.984L142.45 121.009Z" fill="#21557C"/>
<path d="M177.76 119.52L177.499 119.757C171.235 128.776 163.076 136.319 153.593 141.856L149.279 142.569L172.816 120.195L177.76 119.52Z" fill="#D97973"/>
<path d="M171.977 139.835L164.702 131.902L161.3 135.691L167.424 145.139C164.952 145.668 161.879 146.761 159.408 147.3C159.19 149.77 159.096 152.183 158.87 154.664C153.923 155.39 149.053 155.712 144.056 156.444C142.38 173.7 146.567 191.016 155.941 205.6L165.27 204.364L159.53 220.891L164.173 220.841L171.178 205.71C171.178 205.71 173.763 208.556 174.973 209.999C179.221 209.245 183.412 208.67 187.658 207.906C190.168 212.064 193.465 215.691 197.364 218.584L221.217 215.053C216.728 204.006 211.951 192.463 207.501 181.402C204.279 173.375 200.984 165.248 195.725 158.368C189.759 150.564 171.977 139.835 171.977 139.835Z" fill="#1B3B63"/>
<path d="M171.827 164.448C169.215 159.962 167.462 152.357 168.346 147.226C169.23 142.096 174.257 134.581 179.232 133.075C208.085 124.11 233.801 117.053 263.868 112.839C293.935 108.626 325.322 109.957 355.173 115.466C386.339 121.226 415.612 132.348 432.194 162.573C409.02 204.831 290.263 218.166 259.615 221.8C249.475 223.002 238.558 222.754 228.788 219.739C217.502 216.252 208.476 207.429 202.348 197.336C196.22 187.243 192.612 175.839 189.082 164.574C183.312 164.34 177.607 164.681 171.827 164.448Z" fill="#F8DFC9"/>
<path d="M192.426 164.989C241.804 160.347 291.989 154.531 342.979 147.544L354.323 156.2L382.738 154.898L347.852 160.658L334.346 153.196C290.083 161.731 247.131 176.507 199.13 182.863C199.13 182.863 197.474 179.421 195.618 174.32C194.025 169.831 192.426 164.989 192.426 164.989Z" fill="#F1791C"/>
<path d="M224.765 193.248C246.746 192.718 268.672 191.469 290.568 189.388C319.23 186.601 347.908 183.015 376.154 177.317C375.077 180.229 375.398 183.476 377.027 186.119C377.292 186.598 377.555 187.057 377.81 187.538C337.45 203.373 232.251 214.51 223.8 214.751L220.829 214.64C213.701 210.105 207.759 203.933 203.496 196.639C202.877 195.622 202.297 194.589 201.726 193.555C209.381 193.622 217.028 193.476 224.765 193.248Z" fill="#E8A699"/>
<path d="M179.635 134.363C205.792 126.219 228.552 119.916 254.276 115.663C257.514 115.133 260.796 114.628 264.055 114.176C292.587 110.176 324.019 111.088 354.935 116.789C369.669 119.508 386.327 123.728 401.215 132.631C399.156 133.458 390.49 134.979 388.35 135.192C379.975 132.891 344.023 127.474 334.581 126.636C315.401 124.929 295.79 125.981 276.644 127.66C256.613 129.425 236.522 131.964 216.904 136.468C206.834 138.81 175.265 145.624 169.734 147.274C170.638 142.524 175.323 135.7 179.635 134.363Z" fill="#FFF0E9"/>
<path d="M377.395 176.405C382.678 174.788 387.901 173.622 393.194 172.003C389.773 164.837 388.272 156.907 388.835 148.986C389.196 145.246 391.02 141.799 393.91 139.397C397.665 137.439 401.56 135.76 405.561 134.374L405.829 134.339C405.971 134.323 406.104 134.263 406.21 134.167C417.044 141.384 425.953 151.136 432.164 162.576C424.383 176.72 405.823 187.691 383.44 196.082C378.935 190.563 376.765 183.502 377.395 176.405Z" fill="#1B3B63"/>
<path d="M414.547 140.53C415.068 142.951 415.125 145.449 414.715 147.89C404.546 147.724 393.568 148.916 383.438 149.209C382.654 148.082 382.046 147.305 381.261 146.177C376.438 146.322 371.217 146.498 366.429 146.689C364.921 144.366 363.969 142.586 362.463 140.275L405.564 133.709C408.711 135.774 411.714 138.053 414.547 140.53Z" fill="#11859F"/>
<path d="M366.704 140.993L371.5 140.257C372.878 141.911 374.414 143.453 375.931 145.007L373.793 145.088L369.144 145.25C368.312 143.837 367.507 142.41 366.704 140.993Z" fill="#00B8C4"/>
<path d="M386.588 142.083L386.575 141.983C388.129 143.746 389.583 145.595 390.929 147.521L389.98 147.576C389.633 146.946 389.278 146.317 388.904 145.701C388.183 144.525 387.423 143.284 386.588 142.083ZM399.849 147.004C401.201 146.927 402.542 146.839 403.854 146.778C400.959 143.419 398.034 140.073 395.209 136.644L392.521 137.061C394.987 140.375 397.534 143.609 399.849 147.004ZM401.035 136.76C400.922 136.647 400.761 136.593 400.603 136.616L399.833 135.91L405.252 135.092C408.063 136.976 410.751 139.035 413.301 141.259C413.651 143.005 413.731 144.794 413.539 146.563C412.481 146.563 411.415 146.583 410.337 146.595C407.355 143.197 404.207 139.991 401.045 136.829L401.035 136.76Z" fill="#FFF7CC"/>
<path d="M155.078 266.499C167.112 253.983 176.473 239.149 182.593 222.901C180.48 220.809 178.242 219.069 176.139 216.976C170.96 233.795 162.704 249.507 151.791 263.313L155.078 266.499Z" fill="#FFF8E7"/>
<path d="M176.119 216.978C164.165 217.745 152.296 219.51 140.635 222.252C137.2 235.608 132.87 248.718 127.674 261.494C135.58 263.177 143.675 263.8 151.746 263.35C162.667 249.532 170.931 233.809 176.119 216.978Z" fill="#F8DFC9"/>
<path d="M145.207 236.062C142.312 240.381 139.808 244.95 137.724 249.713C136.223 253.445 135.08 257.312 134.311 261.261C132.688 261.042 131.081 260.791 129.507 260.485C134.359 248.378 138.444 235.977 141.739 223.358C146.213 222.332 150.726 221.441 155.177 220.701C159.125 220.047 163.091 219.522 167.073 219.125C158.412 223.117 150.751 227.954 145.207 236.062Z" fill="#E8A699"/>
<path d="M140.081 250.066L141.703 250.053L143.859 250.03L144.365 249.963L144.186 250.441C142.555 254.664 140.37 258.651 137.686 262.298L136.879 262.222C139.524 258.677 141.69 254.798 143.321 250.687L141.678 250.702L139.533 250.724L139.019 250.733L139.208 250.253C140.382 247.314 141.648 244.301 142.877 241.395C144.106 238.488 145.383 235.484 146.548 232.556L146.64 232.332L146.878 232.3L149.075 232.363C149.732 232.376 150.39 232.39 151.1 232.417C153.406 228.243 155.112 223.767 156.168 219.117L156.911 219.018C155.85 223.916 154.079 228.634 151.654 233.02L151.557 233.204L151.349 233.232L149.142 233.171L147.178 233.118C146.034 235.983 144.798 238.912 143.599 241.743C142.4 244.574 141.196 247.287 140.081 250.066Z" fill="white"/>
<path d="M143.846 251.454L142.194 251.471C141.468 251.477 140.743 251.482 140.059 251.502L139.546 251.509L139.733 251.02C140.898 248.083 142.174 245.078 143.404 242.172C144.633 239.266 145.9 236.263 147.074 233.324L147.165 233.1L147.403 233.068L149.6 233.13L151.625 233.185C154.063 228.775 155.831 224.026 156.871 219.094L157.168 219.055L157.582 219.131C156.51 224.253 154.662 229.183 152.103 233.747L152.006 233.931L151.798 233.959L149.591 233.898L147.626 233.836C146.483 236.71 145.247 239.638 144.048 242.47C142.85 245.302 141.69 248.048 140.575 250.828L142.196 250.805C142.932 250.799 143.669 250.802 144.352 250.782L144.856 250.776L144.677 251.253C143.05 255.475 140.863 259.459 138.176 263.099L137.37 263.035C140.028 259.475 142.204 255.581 143.846 251.454Z" fill="#21557C"/>
<path d="M196.538 132.054C198.287 129.703 200.427 127.669 202.863 126.042L205.195 125.44L205.447 126.053C202.387 127.762 199.724 130.098 197.63 132.908C194.253 137.338 192.403 142.744 192.356 148.314C230.09 148.068 268.789 144.588 310.646 137.694C316.41 136.739 322.317 135.715 328.214 134.621C326.578 129.66 327.396 124.216 330.418 119.955C332.933 116.527 336.689 114.219 340.885 113.525L341.39 113.458C342.417 113.595 343.445 113.741 344.475 113.897L344.775 114.029L344.73 114.68L344.393 114.654C343.299 114.576 342.198 114.631 341.116 114.817C333.113 116.045 327.621 123.528 328.849 131.531C329.021 132.642 329.318 133.729 329.738 134.773L330.04 135.53L329.227 135.638C323.074 136.784 316.892 137.866 310.871 138.864C277.189 144.575 243.162 148.03 209.017 149.205C209.25 154.836 210.472 160.384 212.63 165.592C216.258 174.554 222.04 182.644 227.161 189.784C249.242 191.136 271.404 190.035 293.242 186.501C297.902 185.732 302.535 184.846 307.013 183.851L307.618 183.771L307.807 184.36C312.297 198.534 325.655 207.317 343.533 207.874C342.086 208.22 340.637 208.554 339.187 208.873C323.175 207.1 311.138 198.465 306.714 185.322C302.391 186.269 297.944 187.119 293.473 187.862C271.424 191.443 249.046 192.556 226.751 191.179L226.436 191.161L226.239 190.894C221.017 183.607 215.101 175.343 211.385 166.17C209.164 160.817 207.907 155.114 207.671 149.322C202.356 149.481 196.981 149.567 191.7 149.601L191.046 149.617L190.961 148.973C190.857 142.865 192.822 136.903 196.538 132.054Z" fill="white"/>
<path d="M197.862 132.151C194.369 136.726 192.493 142.332 192.528 148.089C235.597 147.833 280.291 143.317 329.16 134.293C326.139 126.206 330.246 117.203 338.332 114.182C339.469 113.757 340.652 113.467 341.856 113.315L344.94 113.754L344.952 113.844C336.688 113.254 329.512 119.474 328.922 127.737C328.759 130.014 329.12 132.3 329.973 134.418L330.126 134.801L329.718 134.855C286.927 142.772 247.322 147.249 209.218 148.431C209.41 154.214 210.643 159.913 212.858 165.259C216.502 174.268 222.346 182.442 227.518 189.656C254.368 191.372 281.327 189.377 307.633 183.727L307.94 183.687L307.979 183.984C312.523 198.342 326.263 207.255 344.206 207.775L341.917 208.311C324.915 207.132 311.969 198.335 307.43 184.481C281.108 190.107 254.138 192.083 227.277 190.353L227.118 190.374L227.031 190.246C221.81 182.968 215.896 174.721 212.195 165.588C209.949 160.169 208.698 154.389 208.504 148.526C203.037 148.684 197.603 148.782 192.201 148.817L191.884 148.859L191.842 148.543C191.714 142.524 193.635 136.639 197.288 131.854C198.999 129.572 201.08 127.592 203.442 125.995L205.766 125.333C202.681 127.025 199.989 129.348 197.862 132.151Z" fill="#21557C"/>
<path d="M183.596 203.431C180.12 198.941 178.158 193.465 177.994 187.791C182.839 186.205 187.981 185.748 193.029 186.455C194.479 190.933 196.742 195.107 199.703 198.765C194.664 201.292 189.205 202.873 183.596 203.431Z" fill="#F8DFC9"/>
<path d="M366.428 146.678L362.463 140.274L405.564 133.708L405.818 133.876L364.185 141.014L367.503 146.646L366.428 146.678Z" fill="#D97973"/>
<path d="M381.241 146.179L383.417 149.209L414.695 147.893C415.101 145.451 415.044 142.952 414.527 140.531C414.803 142.833 414.602 145.169 413.933 147.389L384.225 148.376L382.074 146.23L381.241 146.179Z" fill="#D97973"/>
<path d="M289.243 127.576C289.359 128.448 290.841 128.897 292.405 128.599C293.969 128.301 295.203 127.351 295.039 126.485C294.874 125.619 293.432 125.165 291.818 125.469C290.203 125.774 289.078 126.71 289.243 127.576Z" fill="#D15F5E"/>
<path d="M292.69 125.576C293.062 125.505 293.44 125.476 293.818 125.487C294.505 125.648 294.995 125.997 295.089 126.479C295.204 127.351 294.079 128.287 292.454 128.593C292.082 128.663 291.703 128.693 291.326 128.682C290.637 128.511 290.148 128.172 290.064 127.689C289.909 126.822 291.076 125.88 292.69 125.576Z" fill="#136B86"/>
<path d="M293.313 126.623C293.356 126.747 293.349 126.882 293.293 126.999C292.966 127.728 291.855 127.946 291.217 127.93C290.991 127.946 290.778 127.827 290.673 127.628C290.395 126.979 291.363 126.296 291.758 126.224C292.224 126.111 292.716 126.178 293.135 126.415C293.212 126.466 293.274 126.538 293.313 126.623Z" fill="#FFF7CC"/>
<path d="M278.176 128.638C278.357 129.622 279.977 130.124 281.788 129.783C283.6 129.443 284.928 128.359 284.747 127.374C284.566 126.389 282.936 125.889 281.125 126.23C279.315 126.571 277.987 127.664 278.176 128.638Z" fill="#D15F5E"/>
<path d="M282.05 126.359C282.469 126.281 282.894 126.248 283.32 126.262C284.091 126.452 284.646 126.834 284.747 127.374C284.929 128.359 283.606 129.412 281.788 129.783C281.37 129.862 280.945 129.894 280.52 129.881C279.748 129.69 279.193 129.31 279.102 128.767C278.94 127.78 280.233 126.731 282.05 126.359Z" fill="#136B86"/>
<path d="M282.783 127.553C282.835 127.692 282.83 127.845 282.769 127.979C282.23 128.719 281.337 129.117 280.426 129.025C280.175 129.038 279.937 128.905 279.816 128.682C279.498 127.958 280.626 127.183 281.04 127.108C281.563 126.982 282.115 127.061 282.582 127.328C282.67 127.381 282.74 127.459 282.783 127.553Z" fill="#FFF7CC"/>
<path d="M218.166 136.019C218.297 137.011 219.966 137.507 221.787 137.164C223.608 136.823 224.917 135.739 224.736 134.755C224.556 133.77 222.936 133.268 221.115 133.611C219.294 133.953 217.986 135.044 218.166 136.019Z" fill="#D15F5E"/>
<path d="M222.044 133.77C222.461 133.688 222.886 133.652 223.311 133.663C224.083 133.854 224.639 134.244 224.74 134.784C224.921 135.769 223.598 136.822 221.791 137.192C221.37 137.272 220.941 137.305 220.513 137.291C219.741 137.101 219.195 136.709 219.094 136.178C218.901 135.174 220.263 134.107 222.044 133.77Z" fill="#136B86"/>
<path d="M222.773 134.935C222.825 135.07 222.819 135.22 222.758 135.351C222.226 136.096 221.337 136.498 220.426 136.406C220.171 136.422 219.928 136.289 219.806 136.064C219.498 135.339 220.616 134.566 221.03 134.49C221.555 134.366 222.107 134.441 222.58 134.698C222.663 134.761 222.73 134.842 222.773 134.935Z" fill="#FFF7CC"/>
<path d="M266.961 129.719C267.166 130.811 268.987 131.388 271.025 131.007C273.063 130.625 274.557 129.418 274.352 128.327C274.147 127.233 272.325 126.658 270.278 127.04C268.23 127.423 266.755 128.627 266.961 129.719Z" fill="#D15F5E"/>
<path d="M271.316 127.186C271.787 127.093 272.266 127.056 272.745 127.077C273.62 127.284 274.232 127.727 274.352 128.327C274.558 129.419 273.061 130.616 271.026 131.007C270.554 131.089 270.075 131.126 269.597 131.115C268.732 130.907 268.11 130.465 267.999 129.864C267.793 128.762 269.279 127.566 271.316 127.186Z" fill="#136B86"/>
<path d="M272.175 128.484C272.236 128.637 272.23 128.811 272.157 128.96C271.745 129.883 270.306 130.214 269.529 130.136C269.246 130.158 268.977 130.012 268.844 129.762C268.493 128.941 269.72 128.073 270.213 127.987C270.804 127.839 271.43 127.926 271.959 128.23C272.055 128.29 272.131 128.379 272.175 128.484Z" fill="#FFF7CC"/>
<path d="M254.116 131.369C254.375 132.716 256.607 133.419 259.107 132.948C261.606 132.475 263.43 131.013 263.182 129.675C262.934 128.335 260.701 127.622 258.192 128.095C255.682 128.57 253.868 130.031 254.116 131.369Z" fill="#D15F5E"/>
<path d="M259.466 128.27C260.045 128.162 260.634 128.115 261.223 128.13C262.266 128.394 263.039 128.897 263.182 129.675C263.43 131.013 261.606 132.476 259.107 132.949C258.528 133.057 257.939 133.104 257.35 133.089C256.306 132.825 255.534 132.322 255.39 131.545C255.142 130.206 256.966 128.743 259.466 128.27Z" fill="#136B86"/>
<path d="M260.593 129.847C260.661 130.035 260.652 130.243 260.568 130.424C260.063 131.562 258.333 131.901 257.339 131.861C256.991 131.883 256.661 131.702 256.491 131.399C256.065 130.395 257.568 129.33 258.219 129.213C258.943 129.042 259.704 129.146 260.356 129.505C260.46 129.599 260.541 129.716 260.593 129.847Z" fill="#FFF7CC"/>
<path d="M227.096 134.746C227.355 136.093 229.586 136.796 232.086 136.324C234.586 135.851 236.443 134.415 236.162 133.051C235.88 131.685 233.681 130.998 231.171 131.473C228.662 131.946 226.848 133.407 227.096 134.746Z" fill="#D15F5E"/>
<path d="M232.445 131.647C233.024 131.538 233.613 131.49 234.202 131.505C235.246 131.769 236.018 132.273 236.162 133.051C236.41 134.389 234.587 135.862 232.086 136.324C231.508 136.437 230.919 136.486 230.33 136.466C229.286 136.201 228.513 135.698 228.37 134.92C228.122 133.581 229.946 132.119 232.445 131.647Z" fill="#136B86"/>
<path d="M233.573 133.222C233.641 133.41 233.632 133.618 233.548 133.8C233.043 134.937 231.313 135.276 230.329 135.235C229.979 135.262 229.648 135.08 229.481 134.773C229.052 133.821 230.549 132.705 231.159 132.594C231.885 132.419 232.648 132.527 233.298 132.896C233.417 132.977 233.513 133.09 233.573 133.222Z" fill="#FFF7CC"/>
<path d="M239.208 133.203C239.497 134.778 242.118 135.601 245.051 135.051C247.984 134.502 250.128 132.785 249.838 131.21C249.549 129.634 246.918 128.812 243.985 129.362C241.052 129.912 238.909 131.628 239.208 133.203Z" fill="#D15F5E"/>
<path d="M245.475 129.567C246.152 129.438 246.841 129.381 247.53 129.397C248.782 129.704 249.672 130.334 249.789 131.215C250.078 132.791 247.942 134.486 245.002 135.057C244.344 135.181 243.674 135.233 243.004 135.211C241.755 134.913 240.864 134.283 240.698 133.409C240.404 131.873 242.542 130.117 245.475 129.567Z" fill="#136B86"/>
<path d="M246.847 131.394C246.929 131.615 246.918 131.861 246.816 132.073C246.225 133.402 244.191 133.814 243.005 133.769C242.594 133.809 242.201 133.592 242.015 133.224C241.508 132.061 243.279 130.806 243.988 130.682C244.837 130.471 245.735 130.595 246.495 131.026C246.644 131.113 246.765 131.243 246.847 131.394Z" fill="#FFF7CC"/>
<path d="M209.282 137.337C209.472 138.32 211.071 138.815 212.882 138.474C214.693 138.133 215.993 137.053 215.812 136.069C215.631 135.084 214.024 134.601 212.221 134.93C210.419 135.26 209.104 136.373 209.282 137.337Z" fill="#D15F5E"/>
<path d="M213.142 135.101C213.556 135.023 213.978 134.99 214.4 135.005C215.17 135.185 215.716 135.577 215.817 136.108C215.948 137.1 214.683 138.135 212.887 138.514C212.469 138.592 212.045 138.625 211.619 138.611C210.859 138.429 210.303 138.039 210.212 137.506C210.017 136.493 211.36 135.437 213.142 135.101Z" fill="#136B86"/>
<path d="M213.86 136.256C213.911 136.395 213.906 136.548 213.845 136.682C213.314 137.415 212.431 137.809 211.531 137.715C211.277 137.734 211.035 137.605 210.912 137.382C210.605 136.666 211.723 135.893 212.127 135.82C212.65 135.696 213.198 135.772 213.668 136.03C213.749 136.087 213.815 136.166 213.86 136.256Z" fill="#FFF7CC"/>
<path d="M265.557 214.032L267.289 215.842L259.419 216.661L256.82 214.332L265.557 214.032Z" fill="#00EBAA"/>
<path d="M258.451 214.53L265.194 214.415L265.893 215.199L260.18 216.015L258.451 214.53Z" fill="#FFF7CC"/>
<path d="M265.557 214.033L256.82 214.333L255.695 213.755L265.55 213.299L268.698 216.653L267.289 215.842L265.557 214.033Z" fill="#8452B8"/>
<path d="M267.289 215.841L259.419 216.661L256.82 214.333L255.734 213.749L260.074 217.573L268.737 216.647L267.289 215.841Z" fill="#FFF7CC"/>
<path d="M420.65 170.547C408.45 178.162 395.33 184.19 381.607 188.488C379.786 185.378 379.003 181.767 379.375 178.182C392.543 176.458 408.157 175.078 420.65 170.547Z" fill="#004D5C"/>
<path d="M188.533 181.301C187.17 177.302 186.282 173.157 185.889 168.951C182.373 168.68 178.602 167.778 175.095 167.496C175.176 172.902 175.965 178.275 177.443 183.476C180.769 182.995 185.218 181.78 188.533 181.301Z" fill="#FFF7CC"/>
<path d="M167.398 179.076C169.553 179.043 171.255 178.717 173.399 178.685C173.067 176.177 173.505 173.466 173.193 170.955C171.331 170.687 169.383 170.219 167.52 169.941C165.981 163.256 165.698 156.343 166.687 149.555C165.071 149.769 163.704 149.878 162.107 150.161C161.113 158.238 161.434 166.422 163.056 174.396C163.424 176.254 166.238 177.626 167.398 179.076Z" fill="#FFF7CC"/>
<path d="M156.085 166.997C156.133 163.854 156.171 160.711 156.217 157.558C152.983 157.663 149.452 157.505 146.217 157.611C146.168 159.443 145.984 160.95 145.944 162.781C149.531 163.626 152.956 165.05 156.085 166.997Z" fill="#FFF7CC"/>
<path d="M191.702 209.035C192.901 212.224 195.202 214.879 198.19 216.518C202.969 215.663 207.92 215.037 212.7 214.192C210.022 211.834 207.616 209.181 205.53 206.286C200.99 207.037 196.248 208.331 191.702 209.035Z" fill="#FFF7CC"/>
<path d="M168.229 195.782C169.155 200.262 171.458 204.342 174.817 207.449L182.195 205.956C179.67 202.907 177.874 199.323 176.944 195.475C174.059 195.706 171.139 195.517 168.229 195.782Z" fill="#FFF7CC"/>
<path d="M155.078 266.499C148.311 266.438 137.673 265.778 130.714 263.582C130.714 263.582 128.736 262.129 127.733 261.485C134.477 262.974 145.212 263.982 151.805 263.341L155.078 266.499Z" fill="#D97973"/>
<path d="M415.914 148.64C418.912 152.061 421.34 155.942 423.105 160.135C423.4 163.122 423.916 165.798 424.246 168.75C426.345 166.524 428.05 163.958 429.293 161.162C425.695 154.516 421.225 148.381 416.003 142.918C416.134 144.818 415.914 148.64 415.914 148.64Z" fill="#FFF7CC"/>
<path d="M230.404 175.271C228.091 175.832 225.761 174.411 225.201 172.098C225.183 172.024 225.167 171.947 225.152 171.871C224.655 169.452 225.793 166.989 227.96 165.8C229.621 164.809 231.736 165.029 233.156 166.343C233.452 166.596 233.434 166.842 233.132 167.155L232.614 167.656C232.212 168.052 232.102 168.056 231.742 167.7C231.405 167.351 230.969 167.117 230.493 167.028C229.285 166.84 228.09 167.435 227.512 168.512C226.499 170.039 226.854 172.091 228.323 173.186C229.62 173.944 231.285 173.506 232.042 172.209C232.055 172.188 232.067 172.166 232.078 172.144L232.276 171.808C232.463 171.469 232.625 171.396 232.943 171.515L233.701 171.831C234.022 171.969 234.083 172.202 233.886 172.541C233.174 173.911 231.904 174.906 230.404 175.271Z" fill="#FBFBFB"/>
<path d="M243.721 172.157C242.74 172.368 242.996 172.475 242.29 171.711L235.95 164.743L235.855 164.635C235.691 164.449 235.709 164.164 235.895 164C235.957 163.946 236.03 163.909 236.11 163.895C236.527 163.84 236.942 163.704 237.363 163.608C237.53 163.581 237.698 163.658 237.783 163.804L239.51 165.956L239.653 166.119C239.888 166.37 240.201 166.299 240.356 165.945L241.042 164.271L241.569 162.99C241.632 162.762 241.823 162.593 242.055 162.553C242.422 162.504 242.791 162.395 243.163 162.305C243.326 162.249 243.506 162.313 243.597 162.46C243.685 162.609 243.683 162.797 243.59 162.945L241.528 167.253C241.363 167.607 241.375 167.698 241.621 167.957L244.546 171.15C244.71 171.274 244.776 171.49 244.707 171.684C244.632 171.869 244.454 171.991 244.254 171.996L244.155 172.009L243.721 172.157Z" fill="#FBFBFB"/>
<path d="M242.63 161.478C242.083 161.55 241.58 161.165 241.508 160.618C241.414 159.726 241.17 158.86 240.784 158.051C239.827 155.999 237.822 154.634 235.561 154.494C235.156 154.47 234.749 154.486 234.347 154.544L233.882 154.606C233.461 154.719 233.018 154.527 232.811 154.142C232.584 153.75 232.593 153.262 232.836 152.878C233.001 152.593 233.286 152.396 233.612 152.343L234.247 152.259C235.236 152.119 236.242 152.171 237.212 152.411C239.448 152.964 241.35 154.433 242.45 156.458C243.045 157.514 243.43 158.676 243.589 159.877L243.62 160.116C243.711 160.705 243.358 161.273 242.788 161.447L242.63 161.478Z" fill="#F1791C"/>
<path d="M234.299 152.505C235.258 152.372 236.233 152.42 237.173 152.647C239.34 153.19 241.183 154.615 242.254 156.576C242.837 157.607 243.213 158.742 243.362 159.918L243.391 160.136C243.462 160.623 243.169 161.09 242.699 161.237L242.599 161.25C242.201 161.311 241.829 161.036 241.77 160.638C241.765 160.611 241.762 160.582 241.762 160.555C241.66 159.657 241.404 158.783 241.006 157.972C240.019 155.835 237.933 154.414 235.584 154.281C235.161 154.251 234.737 154.266 234.319 154.327L233.813 154.394C233.511 154.463 233.2 154.323 233.052 154.051C232.876 153.733 232.887 153.346 233.079 153.039C233.209 152.815 233.434 152.663 233.69 152.625L234.304 152.544L234.299 152.505ZM234.239 152.048L233.594 152.133C233.207 152.207 232.87 152.448 232.673 152.79C232.385 153.253 232.377 153.836 232.652 154.306C232.899 154.755 233.407 154.995 233.91 154.896L234.415 154.829C234.801 154.769 235.191 154.753 235.58 154.786C237.746 154.892 239.674 156.19 240.587 158.157C240.96 158.919 241.199 159.743 241.292 160.587C241.342 161.259 241.927 161.763 242.599 161.713C242.629 161.711 242.659 161.708 242.689 161.703L242.849 161.682C243.538 161.48 243.977 160.804 243.879 160.092L243.848 159.854C243.683 158.616 243.288 157.42 242.685 156.327C241.548 154.243 239.586 152.734 237.281 152.17C236.285 151.922 235.25 151.869 234.234 152.009L234.239 152.048Z" fill="#F7DCD2"/>
<path d="M239.692 162.149C239.204 162.193 238.765 161.849 238.69 161.363C238.612 160.682 238.394 160.024 238.051 159.43C237.356 158.196 235.959 157.534 234.563 157.774L234.431 157.539L234.476 157.876C233.485 158.007 233.212 157.469 233.155 157.042C233.022 156.415 233.421 155.8 234.048 155.666L234.101 155.656C234.246 155.627 234.391 155.608 234.538 155.598C235.383 155.484 236.244 155.579 237.045 155.874C238.759 156.494 240.072 157.9 240.572 159.653C240.634 159.851 240.685 160.053 240.723 160.257L240.748 160.446L240.765 160.575C240.829 160.829 240.836 161.093 240.787 161.35C240.678 161.834 240.271 162.197 239.776 162.249L239.692 162.149Z" fill="#E63B1F"/>
<path d="M234.566 155.737C235.37 155.625 236.189 155.714 236.95 155.995C238.572 156.595 239.815 157.928 240.301 159.587C240.339 159.875 240.438 160.164 240.483 160.35C240.546 160.609 240.563 160.877 240.528 161.141C240.441 161.526 240.118 161.813 239.724 161.853L239.674 161.859C239.31 161.902 238.98 161.645 238.932 161.282C238.835 160.603 238.613 159.948 238.273 159.351C237.522 158.04 236.029 157.335 234.538 157.586L234.469 157.596C233.835 157.68 233.504 157.471 233.422 156.927C233.321 156.418 233.652 155.924 234.161 155.822C234.165 155.821 234.168 155.82 234.173 155.819L234.601 155.763L234.566 155.737ZM234.535 155.267C234.378 155.278 234.223 155.298 234.069 155.329C233.298 155.468 232.784 156.207 232.924 156.978C232.924 156.983 232.926 156.988 232.927 156.993C232.978 157.381 233.246 158.262 234.535 158.091L234.634 158.078C235.94 157.872 237.236 158.506 237.87 159.667C238.185 160.222 238.385 160.833 238.462 161.465C238.562 162.074 239.116 162.502 239.731 162.447L239.811 162.436C240.41 162.375 240.902 161.936 241.029 161.347C241.089 161.059 241.083 160.759 241.013 160.472L240.999 160.362L240.97 160.145C240.931 159.931 240.879 159.718 240.816 159.509C240.295 157.661 238.92 156.175 237.119 155.51C236.283 155.202 235.382 155.102 234.498 155.22L234.535 155.267Z" fill="#F7DCD2"/>
<path d="M235.712 169.344C235.935 170.646 236.159 171.957 236.396 173.289C236.48 173.546 236.34 173.821 236.083 173.907C236.048 173.918 236.012 173.925 235.976 173.929L234.997 174.15C234.67 174.193 234.506 174.104 234.47 173.755C234.434 173.407 234.373 173.022 234.325 172.655C234.091 170.379 233.863 168.099 233.641 165.815C233.578 165.34 233.708 165.18 234.15 165.092C234.894 164.994 234.904 164.993 235.029 165.712C235.252 166.934 235.454 168.158 235.666 169.38L235.712 169.344Z" fill="#FBFBFB"/>
<path d="M236.8 162.855C236.282 162.926 235.797 162.584 235.687 162.074C235.648 161.861 235.577 161.656 235.476 161.466C235.272 161.181 234.915 161.05 234.574 161.132C234.242 161.195 233.901 161.082 233.668 160.838C233.421 160.553 233.326 160.169 233.41 159.803C233.489 159.279 233.914 158.878 234.441 158.829L234.629 158.804C236.041 158.645 237.357 159.543 237.723 160.916C237.779 161.147 237.81 161.384 237.816 161.621C237.833 162.203 237.437 162.715 236.869 162.846L236.8 162.855Z" fill="#E29D16"/>
<path d="M234.661 159.042C235.949 158.893 237.151 159.715 237.478 160.97C237.531 161.181 237.56 161.398 237.564 161.615C237.568 162.074 237.259 162.476 236.815 162.592L236.736 162.602C236.351 162.653 235.996 162.385 235.94 162.002C235.896 161.76 235.811 161.53 235.688 161.319C235.436 160.951 234.985 160.774 234.55 160.873C234.114 160.944 233.703 160.651 233.63 160.215C233.609 160.089 233.618 159.962 233.657 159.841C233.722 159.421 234.068 159.099 234.492 159.064L234.661 159.042ZM234.595 158.546L234.446 158.566C233.815 158.628 233.306 159.112 233.21 159.739C233.112 160.183 233.234 160.647 233.536 160.986C233.829 161.28 234.244 161.417 234.654 161.354C234.903 161.28 235.173 161.373 235.32 161.587C235.402 161.738 235.455 161.902 235.475 162.071C235.592 162.716 236.19 163.158 236.84 163.082L236.969 163.065C237.653 162.906 238.128 162.285 238.104 161.584C238.103 161.336 238.07 161.09 238.007 160.849C237.621 159.359 236.205 158.372 234.673 158.526L234.595 158.546Z" fill="#F7DCD2"/>
<path d="M237.843 173.48L237.328 173.548C237.14 173.573 236.951 173.598 236.829 173.433C236.731 173.248 236.744 173.025 236.863 172.854L237.786 170.915L238.309 169.838C238.47 169.524 238.639 169.431 238.953 169.52L239.761 169.756C240.118 169.86 240.209 170.09 240.036 170.456L238.804 173.04C238.747 173.174 238.629 173.272 238.486 173.304L237.84 173.45L237.843 173.48Z" fill="#FBFBFB"/>
<path d="M233.862 161.609C234.465 161.473 235.065 161.852 235.201 162.456C235.212 162.507 235.221 162.557 235.225 162.609C235.291 163.316 234.842 163.971 234.159 164.163C233.554 164.295 232.957 163.912 232.826 163.307C232.814 163.253 232.807 163.198 232.804 163.142C232.712 162.455 233.143 161.806 233.812 161.626L233.862 161.609Z" fill="#FBFBFB"/>
<path d="M104.626 162.353C104.626 162.353 77.9645 158.224 51.8009 163.889L55.9998 170.504L45.0267 176.721L55.0208 184.441L37.7096 191.822L52.7283 197.146L42.6526 207.722L56.159 208.095L51.4788 216.663L62.9693 218.582L60.3516 227.21C60.3516 227.21 92.6001 226.682 117.211 209.664C117.211 209.664 134.338 181.994 104.626 162.353Z" fill="#41AEAA" fill-opacity="0.5"/>
<path d="M102.868 166.88C102.868 166.88 79.3278 163.092 63.3464 169.532L67.232 173.78L58.1885 178.245L64.9801 183.122L52.1582 189.17L62.0188 194.635L53.9624 202.795L65.2137 204.951L60.7245 212.461L68.8158 213.336L66.6076 219.248C66.6076 219.248 86.4648 221.374 112.069 207.608C112.069 207.608 119.687 184.742 102.868 166.88Z" fill="#37D2CF" fill-opacity="0.5"/>
<path d="M100.09 176.014C99.5218 175.514 89.4716 174.215 75.7099 177.58L78.6958 181.306L70.2763 185.476L76.4575 188.243L66.6943 194.814L76.4872 195.998L71.1585 200.921L79.2539 203.091L73.965 208.315C73.965 208.315 94.496 212.808 106.757 199.233C106.757 199.233 107.237 182.31 100.09 176.014Z" fill="#00FFFF" fill-opacity="0.75"/>
<path d="M120.262 211.083C136.672 209.616 151.82 200.226 161.548 186.924C156.57 177.374 148.652 169.68 138.962 164.979C129.244 160.354 118.297 158.974 107.735 161.044C89.0652 171.798 98.4269 200.751 120.262 211.083Z" fill="#F8DFC9"/>
<path d="M159.056 185.852C152.85 182.214 146.213 179.367 139.302 177.372C129.644 174.749 119.761 173.035 109.784 172.252C106.701 171.823 103.564 171.522 100.434 171.271C101.937 167.478 104.682 164.309 108.222 162.281C108.628 162.227 109.018 162.126 109.423 162.062C129.43 158.724 149.392 168.236 159.402 185.877L159.056 185.852Z" fill="#FFF7CC"/>
<path d="M106.698 196.709C112.37 197.272 118.068 197.527 123.766 197.475C132.485 197.198 141.191 196.59 149.915 196.272L150.93 196.32C143.23 203.024 133.85 207.502 123.795 209.273L120.464 209.714C114.389 206.713 109.167 202.228 105.281 196.675C105.754 196.662 106.222 196.692 106.698 196.709Z" fill="#B85F52"/>
<path d="M141.461 188.041L141.619 188.02L141.7 188.17C143.882 192.216 147.064 195.637 150.944 198.103C150.763 198.258 150.569 198.394 150.386 198.54C146.55 196.059 143.39 192.665 141.19 188.661C131.419 187.268 121.476 187.692 111.86 189.912L111.703 189.257C121.462 187.013 131.551 186.601 141.461 188.041Z" fill="white"/>
<path d="M141.763 187.506L141.932 187.484L142.012 187.635C144.221 191.743 147.461 195.209 151.413 197.688L150.878 198.142C146.949 195.644 143.716 192.191 141.48 188.109C131.706 186.726 121.76 187.15 112.14 189.361L111.966 188.728C121.738 186.482 131.841 186.067 141.763 187.506Z" fill="#21557C"/>
<path d="M107.735 161.044C110.087 160.583 112.47 160.296 114.864 160.182C112.083 162.584 110.213 165.87 109.569 169.487C108.885 173.781 109.123 178.172 110.266 182.367C112.782 192.846 117.954 202.499 125.286 210.397C123.62 210.724 121.938 210.967 120.248 211.125C98.4269 200.751 89.0652 171.798 107.735 161.044Z" fill="#1B3B63"/>
<path d="M107.933 171.448C105.475 171.249 103.023 171.09 100.57 170.921C102.101 167.281 104.786 164.245 108.212 162.282L109.354 162.071L111.465 161.791C109.852 163.991 108.753 166.525 108.251 169.207C108.107 169.948 108 170.696 107.933 171.448ZM108.072 177.684C107.876 176.177 107.794 174.657 107.823 173.137C105.185 173.093 102.544 172.959 99.9044 172.753C99.4564 174.299 99.1941 175.891 99.1204 177.497C99.9154 177.483 100.709 177.46 101.505 177.454C103.604 177.458 105.873 177.683 108.072 177.684Z" fill="#FFF7CC"/>
<path d="M124.019 182.322L124.299 184.433L115.385 185.452L114.632 182.737L124.019 182.322Z" fill="#00EBAA"/>
<path d="M116.156 182.968L123.321 182.766L123.383 183.686L116.728 184.698L116.156 182.968Z" fill="#FFF7CC"/>
<path d="M124.019 182.321L114.632 182.736L113.929 182.073L124.632 181.462L125.089 185.377L124.299 184.432L124.019 182.321Z" fill="#8452B8"/>
<path d="M124.299 184.432L115.355 185.455L114.603 182.74L113.899 182.077L115.226 186.531L125.06 185.381L124.299 184.432Z" fill="#FFF7CC"/>
</svg>
