<svg width="241" height="216" viewBox="0 0 241 216" fill="none" xmlns="http://www.w3.org/2000/svg">
<g clip-path="url(#clip0_23_605)">
<path d="M74.7372 52.8357C75.8676 49.7097 77.9174 46.7341 81.4355 44.1073C89.4069 38.1176 100.162 41.7988 105.548 48.634C111.031 55.6009 112.635 67.7109 99.0924 78.9226C77.3504 96.9076 81.4952 107.03 81.5557 107.129L77.8755 108.951C77.6199 108.434 71.9159 96.0872 96.4745 75.7607C107.725 66.4483 106.874 56.9522 102.322 51.173C98.1307 45.8552 89.9099 42.8936 83.9025 47.3782C76.3665 53.0272 77.2338 60.1873 78.2364 68.4742C78.6391 71.7903 79.0534 75.2184 78.8658 78.5738C78.1958 90.705 69.6206 96.5655 69.2541 96.8084L66.9663 93.4016C67.261 93.2034 74.2027 88.3653 74.7642 78.3432C74.9327 75.3489 74.5587 72.2513 74.1629 68.9674C73.5286 63.7426 72.8437 58.072 74.7372 52.8357Z" fill="#CAB3DA"/>
<path fill-rule="evenodd" clip-rule="evenodd" d="M47.4644 64.2638C47.4644 64.2638 42.9812 56.5061 46.8735 52.1561L47.4644 64.2638Z" fill="#CAB3DA"/>
<path fill-rule="evenodd" clip-rule="evenodd" d="M77.0475 164.739C72.7756 161.135 70.8371 147.748 73.9946 141.802C74.1351 141.537 74.2986 141.28 74.4618 141.034C76.81 137.624 81.7079 136.269 84.8081 135.743C85.7268 135.578 86.6544 135.467 87.5862 135.41L100.148 139.729C100.148 139.729 100.055 139.882 99.8853 140.136C98.8605 141.651 97.6609 143.04 96.3114 144.274C94.0201 146.304 89.1293 154.34 88.5069 159.196C87.8846 164.052 88.7376 166.175 88.2106 167.211C87.6836 168.247 85.5407 168.427 85.5407 168.427C85.5407 168.427 81.5466 168.536 77.0475 164.739Z" fill="url(#paint0_radial_23_605)"/>
<path fill-rule="evenodd" clip-rule="evenodd" d="M85.5241 168.421C85.5241 168.421 86.9122 166.782 86.0044 165.603C85.0966 164.423 78.2883 160.824 77.0506 164.74C75.8129 168.656 85.5241 168.421 85.5241 168.421Z" fill="#684D73"/>
<path fill-rule="evenodd" clip-rule="evenodd" d="M85.4425 167.28C85.4425 167.28 81.8209 165.29 77.7794 166.312C77.7893 166.315 81.8371 169.901 85.4425 167.28Z" fill="#53345F"/>
<path fill-rule="evenodd" clip-rule="evenodd" d="M82.5096 176.419C80.7125 174.527 79.5047 172.153 79.0335 169.586C78.7889 168.455 78.6782 167.298 78.7037 166.14C80.4676 165.712 82.3249 165.9 83.9674 166.672C83.9674 166.672 84.3629 167.038 84.9286 167.622C86.1731 168.908 88.2475 171.22 88.6872 172.769L86.8834 172.217C86.8834 172.217 88.8686 174.559 87.3073 178.373C87.3052 178.368 86.1386 180.084 82.5096 176.419Z" fill="#FF6B22"/>
<path d="M90.0598 154.183C90.0598 154.183 87.6819 150.799 81.0954 148.138C74.5088 145.478 72.4254 149.872 72.4254 149.872C72.4254 149.872 72.3313 146.813 72.9161 144.846C72.9161 144.846 79.5022 134.999 92.0511 150.197L90.0598 154.183Z" fill="#FF6B22"/>
<path style="mix-blend-mode:multiply" fill-rule="evenodd" clip-rule="evenodd" d="M84.8082 135.743C83.8803 135.226 82.9438 134.66 81.9736 134.023L90.1578 132.656L100.492 139.025L100.022 140.13C99.9717 140.134 99.9308 140.134 99.8854 140.136C98.8606 141.651 97.661 143.04 96.3114 144.274C96.3114 144.274 91.1013 132.905 74.4686 141.025C76.8363 137.633 81.7079 136.269 84.8082 135.743Z" fill="url(#paint1_linear_23_605)"/>
<path fill-rule="evenodd" clip-rule="evenodd" d="M26.945 108.49C26.945 108.49 31.7947 107.772 34.5324 96.9531C34.5324 96.9531 27.9479 99.1996 26.945 108.49Z" fill="#311745"/>
<path fill-rule="evenodd" clip-rule="evenodd" d="M59.2678 65.7667C59.2678 65.7667 56.8382 72.4855 48.0232 73.2229C48.0232 73.2229 47.8745 69.8722 51.3372 66.9875C54.7999 64.1028 59.2678 65.7667 59.2678 65.7667Z" fill="#311745"/>
<path fill-rule="evenodd" clip-rule="evenodd" d="M27.1503 100.182L30.6982 95.9829C30.6982 95.9829 31.9286 96.5171 33.9059 97.2878C38.907 99.245 48.6694 102.764 55.3253 103.249L59.7627 124.947C59.7627 124.947 58.541 124.595 56.622 124.012C51.0506 122.306 39.2897 120.347 35.3523 117.555C30.0676 113.823 27.1503 100.182 27.1503 100.182Z" fill="url(#paint2_radial_23_605)"/>
<path fill-rule="evenodd" clip-rule="evenodd" d="M59.7717 124.943C59.7717 124.943 53.88 116.044 54.931 104.021L55.3288 103.239L57.4688 99.0586C57.4837 99.0617 57.4981 99.0669 57.5115 99.0741L57.5838 99.1002C57.6051 99.1098 57.6271 99.1177 57.6495 99.124C57.6785 99.1362 57.7082 99.1469 57.7383 99.1561C59.6972 99.8235 72.142 103.644 86.1307 98.5996C86.8643 99.898 87.683 101.146 88.5816 102.337C88.7602 102.572 88.9426 102.839 89.1395 103.096C90.042 104.311 91.1886 105.796 92.6419 107.574C95.8109 111.463 100.93 117.915 104.444 122.36C105.499 123.697 106.41 124.848 107.078 125.703C107.334 126.022 107.555 126.306 107.729 126.533C108.096 126.989 108.294 127.243 108.294 127.243C108.294 127.243 100.747 134.609 100.584 140.095C100.584 140.095 100.39 140.118 100.021 140.13C99.9749 140.135 99.9319 140.131 99.8853 140.136C97.9614 140.184 92.246 139.894 84.8015 135.741C83.8737 135.223 82.9404 134.659 81.967 134.021C81.6256 133.793 81.282 133.561 80.9277 133.318C80.9277 133.318 71.5325 131.549 62.5221 126.577C61.5997 126.065 60.6769 125.523 59.7717 124.943Z" fill="#CAB3DA"/>
<path fill-rule="evenodd" clip-rule="evenodd" d="M96.5875 119.716C96.3556 119.443 96.1285 119.156 95.8905 118.858C92.1827 114.198 89.1547 107.967 88.5934 102.345C88.2448 98.8994 88.8211 95.692 90.7258 93.2102C94.9761 87.6851 101.118 86.8881 102.883 86.7756C102.943 86.7749 102.999 86.773 103.046 86.7675C103.094 86.7717 103.142 86.7703 103.189 86.7634L103.369 86.758C103.369 86.758 105.484 85.2368 107.502 86.8622C109.519 88.4876 112.045 91.7721 112.045 91.7721L111.658 93.0151C111.658 93.0151 112.928 94.3441 112.279 96.005C111.63 97.666 108.852 100.746 108.114 106.322C107.457 111.221 107.744 119.041 108.103 121.769C108.133 122.048 108.187 122.323 108.262 122.593C108.531 123.541 108.619 124.531 108.523 125.511L108.052 126.133L107.74 126.544L106.78 127.803C106.78 127.803 102.939 127.395 96.5875 119.716Z" fill="url(#paint3_radial_23_605)"/>
<path fill-rule="evenodd" clip-rule="evenodd" d="M57.4688 99.0586C57.4688 99.0586 52.3726 85.976 50.8887 82.7409C49.4048 79.5059 48.4394 71.2398 49.2428 67.4455C49.2761 67.3534 49.2863 67.2531 49.3116 67.173C50.1895 63.6249 52.965 63.0415 52.965 63.0415C52.965 63.0415 53.6232 63.3798 54.6576 63.9211C56.0328 64.6303 58.057 65.7339 60.0621 66.8493C62.741 68.3421 65.3692 69.9132 66.3407 70.8034C67.9918 72.3223 78.0035 86.7662 83.1216 94.2071C84.9248 96.8366 86.1254 98.5939 86.1254 98.5939C75.321 105.603 59.8917 100.005 57.7296 99.1492C57.7001 99.1421 57.6714 99.1318 57.6442 99.1183C57.6201 99.1134 57.5968 99.105 57.5752 99.0934C57.5505 99.0863 57.5263 99.0776 57.5028 99.0672C57.4919 99.0628 57.4805 99.0599 57.4688 99.0586Z" fill="url(#paint4_radial_23_605)"/>
<path fill-rule="evenodd" clip-rule="evenodd" d="M106.28 128.518C106.28 128.518 101.23 131.802 100.021 133.428C98.8129 135.054 100.579 140.108 100.579 140.108C100.579 140.108 101.572 135.606 106.28 128.518Z" fill="#53345F"/>
<path fill-rule="evenodd" clip-rule="evenodd" d="M108.518 125.503C108.518 125.503 93.7481 120.251 88.8056 105.242C88.8056 105.242 91.3868 118.178 106.283 128.508L108.518 125.503Z" fill="#53345F"/>
<path fill-rule="evenodd" clip-rule="evenodd" d="M100.49 139.028C100.49 139.028 88.656 137.087 80.9244 133.317C80.9244 133.317 88.7003 139.667 99.1656 141.14L100.58 140.097L100.49 139.028Z" fill="#53345F"/>
<path fill-rule="evenodd" clip-rule="evenodd" d="M84.2871 95.9071C84.2871 95.9071 77.0508 100.851 56.6453 96.947L57.47 99.0553C57.47 99.0553 75.8487 106.816 86.1308 98.5995L84.2871 95.9071Z" fill="#53345F"/>
<path fill-rule="evenodd" clip-rule="evenodd" d="M62.5101 126.569C62.5101 126.569 53.6625 113.706 55.333 103.248L54.046 103.117C54.046 103.117 50.9343 113.336 57.5122 124.264L62.5101 126.569Z" fill="#53345F"/>
<path fill-rule="evenodd" clip-rule="evenodd" d="M103.358 86.7467C103.358 86.7467 105.473 85.2255 107.491 86.8509C109.508 88.4763 112.034 91.7608 112.034 91.7608L111.647 93.0038C111.647 93.0038 104.408 95.006 103.358 86.7467Z" fill="#684D73"/>
<path fill-rule="evenodd" clip-rule="evenodd" d="M105.636 86.8937C105.636 86.8937 107.95 92.2836 112.034 91.7608C112.034 91.7608 107.725 85.9247 105.636 86.8937Z" fill="#53345F"/>
<path fill-rule="evenodd" clip-rule="evenodd" d="M109.376 91.1863C109.376 91.1863 112.638 92.6186 115.249 90.5671L113.993 89.5071C113.993 89.5071 118.847 87.5862 118.572 83.4651C118.572 83.4651 112.105 80.5875 105.978 87.6641C106.684 89.1857 107.88 90.4261 109.376 91.1863Z" fill="#FF6B22"/>
<path d="M69.793 75.2037C69.793 75.2037 65.8635 71.9689 59.2866 75.9316C52.7097 79.8943 52.1451 85.6595 52.1451 85.6595C52.1451 85.6595 50.4205 82.0623 49.9811 79.8443C49.5418 77.6263 56.5094 69.7052 63.413 68.7858C63.413 68.7858 65.7758 70.0119 66.7413 71.2271C67.7068 72.4422 69.793 75.2037 69.793 75.2037Z" fill="#FF6B22"/>
<path d="M47.3611 101.767C47.3611 101.767 41.9666 103.96 38.0424 107.823C35.7001 110.136 34.2903 113.23 34.0815 116.516C34.0815 116.516 31.665 113.783 30.7737 111.16C30.7737 111.16 33.1977 105.629 36.0813 103.39C38.965 101.15 42.9181 100.476 42.9181 100.476L47.3611 101.767Z" fill="#FF6B22"/>
<path d="M107.944 107.777C107.944 107.777 94.6352 111.692 88.8453 97.2284C88.4545 98.7789 88.3539 100.388 88.5486 101.975C88.9108 105.671 99.975 119.023 107.787 111.79L107.944 107.777Z" fill="#FF6B22"/>
<path d="M55.1712 103.346L55.4707 103.175C55.5268 103.277 61.3483 113.378 67.1487 118.274C72.1685 122.513 75.267 123.852 79.5554 125.704C81.1796 126.403 83.0181 127.198 85.1665 128.246C89.7817 130.5 94.5558 132.413 99.4505 133.969L99.3514 134.305C94.4353 132.739 89.6394 130.819 85.0016 128.558C82.861 127.509 81.0246 126.719 79.4049 126.018C75.0901 124.156 71.972 122.809 66.9156 118.528C61.0877 113.584 55.2365 103.433 55.1712 103.346Z" fill="#53345F"/>
<path style="mix-blend-mode:multiply" fill-rule="evenodd" clip-rule="evenodd" d="M33.6188 97.6189L33.9094 97.2779C38.9105 99.2351 48.6729 102.754 55.3287 103.239L57.4687 99.0586C57.4687 99.0586 52.3758 85.9771 50.8886 82.7409C49.4015 79.5046 48.4425 71.2409 49.246 67.4466C49.2792 67.3546 49.2862 67.253 49.3127 67.1697L54.6575 63.9211C56.0327 64.6303 58.0602 65.7351 60.068 66.8328L60.0264 67.2973C60.0264 67.2973 52.6332 69.9612 50.9373 75.6481C49.2414 81.3349 58.8156 95.4571 61.259 96.2031C70.3909 98.9887 79.0059 96.0603 83.1229 94.1927C84.9294 96.8233 86.1267 98.5795 86.1267 98.5795C86.8603 99.8779 87.679 101.126 88.5776 102.317C88.2289 98.8714 88.8085 95.6651 90.7099 93.1822C94.9601 87.6571 101.107 86.8579 102.867 86.7475C100.989 86.9158 93.9012 88.129 89.9035 97.1799C89.0934 99.0326 88.827 101.078 89.1355 103.076C90.3496 111.919 100.837 120.554 103.282 121.862C103.651 122.06 104.039 122.22 104.44 122.34C106.729 123.008 108.091 121.739 108.091 121.739C108.12 122.018 108.174 122.293 108.251 122.562C108.519 123.511 108.608 124.501 108.511 125.481L108.038 126.102C107.791 126.013 107.468 125.859 107.074 125.683C103.391 124.028 99.8758 122.021 96.5782 119.691C93.9811 117.883 91.6409 115.731 89.6216 113.295C83.1573 105.177 82.3813 103.027 82.3813 103.027C82.3813 103.027 67.1518 101.82 62.3551 104.334C57.5584 106.848 59.1004 119.296 60.8021 122.926C61.6076 124.655 62.1674 125.821 62.5265 126.575C61.5975 126.06 60.6733 125.533 59.7728 124.94C59.7728 124.94 58.5511 124.587 56.632 124.005C54.7661 120.356 48.2587 107.815 44.9197 104.664C40.9875 100.964 33.6188 97.6189 33.6188 97.6189Z" fill="url(#paint5_linear_23_605)"/>
<g style="mix-blend-mode:multiply" opacity="0.5">
<path fill-rule="evenodd" clip-rule="evenodd" d="M108.518 125.503C108.518 125.503 99.7978 124.509 92.3035 130.124C84.8092 135.74 97.64 143.015 97.64 143.015L99.1722 141.142L100.028 140.132L108.518 125.503Z" fill="#53345F"/>
</g>
<path fill-rule="evenodd" clip-rule="evenodd" d="M101.301 166.284C101.232 166.199 101.158 166.116 101.093 166.026C100.192 164.83 99.4065 162.952 98.8673 160.661C98.8673 160.661 98.8297 160.528 98.7857 160.259C97.747 155.27 97.8345 150.112 99.0419 145.161C101.188 136.564 106.833 124.808 115.457 119.244C124.081 113.68 141.493 117.136 145.802 121.326C147.303 122.766 148.715 124.296 150.028 125.909C154.263 131.158 158.82 139.173 157.325 149.073C156.193 156.551 151.671 165.419 146.812 171.609C145.453 173.374 143.93 175.006 142.262 176.483C141.373 177.275 140.395 177.961 139.348 178.529L138.952 178.72C138.69 178.846 138.42 178.955 138.143 179.045C123.846 183.657 106.312 172.173 101.301 166.284Z" fill="url(#paint6_linear_23_605)"/>
<path d="M102.947 165.596C102.88 165.516 102.814 165.441 102.752 165.355C101.629 162.89 99.2615 154.945 105.536 145.425C113.252 133.719 124.918 136.105 124.918 136.105L126.26 133.762C127.878 134.425 129.366 134.956 130.76 135.389C138.577 137.822 143.06 137.06 144.139 137.551C145.418 138.125 151.628 143.89 151.221 154.318C150.952 161.23 148.18 166.84 145.626 170.604C144.354 172.26 142.928 173.793 141.368 175.182C140.534 175.924 139.616 176.568 138.634 177.1L138.261 177.281C138.015 177.399 137.761 177.5 137.501 177.582C131.937 179.372 125.855 178.574 120.307 176.617C112.466 173.87 105.699 168.821 102.947 165.596Z" fill="url(#paint7_linear_23_605)"/>
<path style="mix-blend-mode:multiply" fill-rule="evenodd" clip-rule="evenodd" d="M98.7821 160.269C97.7434 155.28 97.831 150.122 99.0384 145.171C101.185 136.573 106.83 124.818 115.454 119.253C124.078 113.689 141.489 117.146 145.798 121.336C147.3 122.776 148.711 124.306 150.025 125.919C150.703 127.436 150.823 129.044 149.868 130.598C146.347 136.316 125.802 130.002 125.802 130.002L124.867 133.08C124.867 133.08 112.686 130.463 104.071 141.1C96.5351 150.388 98.4603 158.477 98.7821 160.269Z" fill="url(#paint8_linear_23_605)"/>
<path fill-rule="evenodd" clip-rule="evenodd" d="M120.302 117.234C116.546 119.173 115.532 124.935 125.503 129.522C135.474 134.109 147.671 132.264 147.671 132.264C143.455 140.377 126.159 132.335 126.159 132.335C125.468 131.881 124.83 131.446 124.242 131.017L124.177 130.971C111.636 121.906 119.588 117.585 120.302 117.234Z" fill="url(#paint9_linear_23_605)"/>
<path fill-rule="evenodd" clip-rule="evenodd" d="M144.495 120.336C147.638 122.57 149.155 125.661 148.323 127.634C147.49 129.608 136.505 131.453 126.848 126.381C117.19 121.308 122.935 116.16 127.27 116.364L129.653 116.423C129.653 116.423 121.376 118.838 126.546 123.781C132.453 129.422 143.703 127.12 143.664 123.652C143.624 120.185 138 117.731 138 117.731C138 117.731 142.406 118.856 144.495 120.336Z" fill="#53345F"/>
<path fill-rule="evenodd" clip-rule="evenodd" d="M29.9781 94.377L30.9959 95.6223L34.5336 96.9499C34.5336 96.9499 28.3265 102.994 26.945 108.49C25.9801 105.931 25.7276 103.159 26.2144 100.468C26.2144 100.468 22.6789 103.873 18.3264 101.972L29.9781 94.377Z" fill="#684D73"/>
<path fill-rule="evenodd" clip-rule="evenodd" d="M48.0334 73.1744L48.6823 65.2951L47.4613 64.2626C47.4613 64.2626 44.4179 58.2892 46.8736 52.1561C46.8736 52.1561 51.6943 55.1259 52.0363 62.0328L59.2692 65.7634C56.9327 65.6448 54.6052 66.1307 52.5113 67.174C49.1864 68.8449 48.1197 72.8227 48.0334 73.1744Z" fill="#684D73"/>
<path fill-rule="evenodd" clip-rule="evenodd" d="M29.9781 94.377L29.6297 93.4185L17.7907 101.295L18.3276 101.969L29.9781 94.377Z" fill="#CAB3DA"/>
<path style="mix-blend-mode:multiply" fill-rule="evenodd" clip-rule="evenodd" d="M26.945 108.49C25.9801 105.931 25.7276 103.159 26.2144 100.468C26.2144 100.468 29.2567 96.4132 29.9782 94.3771L30.9959 95.6223L34.5336 96.9499C34.5336 96.9499 28.3265 102.994 26.945 108.49Z" fill="url(#paint10_linear_23_605)"/>
<path style="mix-blend-mode:multiply" fill-rule="evenodd" clip-rule="evenodd" d="M48.0334 73.1744L48.6824 65.2952C49.5252 63.9553 50.6754 62.8358 52.0375 62.0296L59.2704 65.7601C56.9333 65.6424 54.6053 66.1294 52.5113 67.1741C49.1865 68.8449 48.1197 72.8228 48.0334 73.1744Z" fill="url(#paint11_linear_23_605)"/>
<path d="M142.553 141.936C142.553 141.936 145.552 143.139 146.338 143.802C146.915 145.494 147.152 147.284 147.035 149.069L141.025 148.791C141.025 148.791 142.448 143.511 142.553 141.936Z" fill="white"/>
<path d="M122.064 137.504C122.064 137.504 119.245 137.168 117.268 137.754L117.538 139.565C117.538 139.565 120.286 139.314 121.874 139.353L122.064 137.504Z" fill="white"/>
<path d="M110.14 154.649C108.259 160.152 107.42 165.957 107.666 171.767C111.421 174.376 115.503 176.478 119.809 178.016C144.241 164.576 130.953 134.094 130.953 134.094C129.528 133.656 128.002 133.104 126.374 132.439C126.23 132.528 126.092 132.623 125.95 132.717L124.724 134.853C124.253 134.767 123.778 134.709 123.3 134.68C117.743 139.275 112.964 146.222 110.14 154.649Z" fill="url(#paint12_radial_23_605)"/>
<path d="M130.215 168.859C128.146 168.148 127.847 163.569 129.549 158.635C131.251 153.701 134.299 150.28 136.368 150.991C138.438 151.702 138.733 156.28 137.034 161.215C135.335 166.15 132.291 169.573 130.215 168.859Z" fill="url(#paint13_radial_23_605)"/>
<path style="mix-blend-mode:multiply" fill-rule="evenodd" clip-rule="evenodd" d="M113.231 83.0838C113.231 83.0838 109.557 84.591 108.481 87.1457C107.405 89.7003 109.843 91.3551 109.843 91.3551C109.843 91.3551 107.537 90.8557 105.973 87.6662C105.978 87.6641 109.352 83.6173 113.231 83.0838Z" fill="url(#paint14_linear_23_605)"/>
<path style="mix-blend-mode:multiply" fill-rule="evenodd" clip-rule="evenodd" d="M79.0336 169.586C78.789 168.455 78.6783 167.298 78.7038 166.14C80.4677 165.712 82.3249 165.9 83.9675 166.672C83.9675 166.672 84.3629 167.038 84.9287 167.622C84.923 167.627 82.1633 166.492 79.0336 169.586Z" fill="url(#paint15_linear_23_605)"/>
<path fill-rule="evenodd" clip-rule="evenodd" d="M89.3538 126.575C88.6928 126.016 88.2122 125.274 87.9728 124.443C87.7335 123.611 87.7461 122.727 88.009 121.902C88.272 121.078 88.7735 120.35 89.4502 119.81C90.1269 119.271 90.9483 118.944 91.8107 118.871C92.673 118.799 93.5375 118.983 94.295 119.402C95.0524 119.821 95.6687 120.454 96.0659 121.223C96.4631 121.992 96.6235 122.861 96.5267 123.721C96.4299 124.581 96.0802 125.393 95.522 126.055C95.1512 126.494 94.6975 126.856 94.1868 127.12C93.6761 127.384 93.1184 127.544 92.5456 127.593C91.9728 127.641 91.3961 127.576 90.8484 127.401C90.3008 127.227 89.7929 126.946 89.3538 126.575Z" fill="#684D73"/>
<path fill-rule="evenodd" clip-rule="evenodd" d="M90.401 125.333C89.9847 124.982 89.6819 124.514 89.531 123.991C89.3802 123.467 89.388 122.911 89.5536 122.392C89.7191 121.872 90.0349 121.414 90.461 121.074C90.8871 120.735 91.4043 120.529 91.9473 120.484C92.4903 120.438 93.0346 120.554 93.5113 120.818C93.988 121.082 94.3758 121.481 94.6255 121.966C94.8753 122.45 94.9758 122.998 94.9143 123.539C94.8528 124.08 94.6321 124.591 94.2801 125.007C94.0469 125.284 93.7615 125.511 93.4403 125.677C93.1191 125.843 92.7683 125.944 92.4081 125.974C92.0478 126.005 91.6851 125.964 91.3407 125.853C90.9963 125.743 90.677 125.567 90.401 125.333Z" fill="#FF6B22"/>
<path fill-rule="evenodd" clip-rule="evenodd" d="M107.715 113.601C107.715 113.601 101.985 115.881 108.024 120.971C108.01 120.966 107.731 115.624 107.715 113.601Z" fill="#684D73"/>
<path d="M46.8263 110.646C47.8627 107.837 49.0914 105.102 50.5035 102.461L50.8144 102.629C50.7415 102.759 43.6469 115.841 45.8524 121.192L45.5373 121.323C44.4621 118.716 45.4486 114.456 46.8263 110.646Z" fill="#53345F"/>
<path d="M54.4104 92.3142L54.5589 91.9962C56.9999 93.0537 59.5899 93.727 62.2369 93.9921C68.9981 94.6381 79.6065 89.2601 79.7118 89.2052L79.8688 89.511C79.7602 89.5647 69.0656 94.9859 62.2029 94.3329C59.5164 94.0683 56.8875 93.3872 54.4104 92.3142Z" fill="#53345F"/>
<path d="M95.8877 88.8437L96.1498 88.6225C105.886 100.22 112.102 95.9 112.167 95.853L112.368 96.13C112.306 96.1782 105.845 100.703 95.8877 88.8437Z" fill="#53345F"/>
<path d="M72.8833 155.164C82.2104 152.712 88.3728 163.72 88.4462 163.835L88.1446 164.001C88.0843 163.89 82.0466 153.114 72.969 155.492L72.8833 155.164Z" fill="#53345F"/>
<path d="M81.4557 115.824C80.7092 115.164 80.0494 114.412 79.4922 113.586L80.9926 112.141C81.7674 112.818 82.3255 113.709 82.5974 114.702L81.4557 115.824Z" fill="white"/>
<path d="M109.506 99.2654C109.065 99.8469 108.771 100.526 108.649 101.245L107.492 101.648C107.492 101.648 107.169 99.8478 108.37 99.0853L109.506 99.2654Z" fill="white"/>
<path d="M67.4145 78.6775C67.0818 77.7224 66.5213 76.8627 65.7817 76.1729L64.2853 76.981L66.0189 79.2991L67.4145 78.6775Z" fill="white"/>
<path d="M88.1901 166.876C88.0961 166.129 87.7668 165.43 87.2498 164.882L87.4781 163.459C87.7413 163.82 87.9591 164.212 88.1264 164.627C88.3613 165.262 88.1901 166.876 88.1901 166.876Z" fill="white"/>
<path d="M42.4204 117.959C42.4204 117.959 38.8661 117.51 37.4204 116.615L36.9424 118.03C38.3951 118.91 40.0385 119.428 41.7337 119.539L42.4204 117.959Z" fill="white"/>
<path d="M153.276 149.284C153.276 149.284 153.312 158.218 151.313 163.171C151.316 163.172 160.148 146.242 153.276 149.284Z" fill="white"/>
<path d="M139.414 132.597L139.128 135.865L135.615 135.405L136.15 132.343L139.414 132.597Z" fill="white"/>
</g>
<defs>
<radialGradient id="paint0_radial_23_605" cx="0" cy="0" r="1" gradientUnits="userSpaceOnUse" gradientTransform="translate(85.2828 149.428) rotate(130.18) scale(15.4529 15.4524)">
<stop stop-color="#F4DBEE"/>
<stop offset="1" stop-color="#D1BDE5"/>
</radialGradient>
<linearGradient id="paint1_linear_23_605" x1="93.5279" y1="133.136" x2="81.7015" y2="147.14" gradientUnits="userSpaceOnUse">
<stop stop-color="#9579A7"/>
<stop offset="1" stop-color="white"/>
</linearGradient>
<radialGradient id="paint2_radial_23_605" cx="0" cy="0" r="1" gradientUnits="userSpaceOnUse" gradientTransform="translate(39.792 120.032) rotate(130.18) scale(16.4736 16.473)">
<stop stop-color="#F4F1FF"/>
<stop offset="1" stop-color="#D1BDE5"/>
</radialGradient>
<radialGradient id="paint3_radial_23_605" cx="0" cy="0" r="1" gradientUnits="userSpaceOnUse" gradientTransform="translate(-17071 139.832) rotate(109.881) scale(1882.51 1360.41)">
<stop stop-color="#F4DBEE"/>
<stop offset="1" stop-color="#D1BDE5"/>
</radialGradient>
<radialGradient id="paint4_radial_23_605" cx="0" cy="0" r="1" gradientUnits="userSpaceOnUse" gradientTransform="translate(-31468.9 -5006.41) rotate(109.881) scale(1838.23 2576.99)">
<stop stop-color="#F4F1FF"/>
<stop offset="1" stop-color="#D1BDE5"/>
</radialGradient>
<linearGradient id="paint5_linear_23_605" x1="93.625" y1="78.9444" x2="56.0146" y2="123.48" gradientUnits="userSpaceOnUse">
<stop stop-color="white"/>
<stop offset="1" stop-color="#9579A7"/>
</linearGradient>
<linearGradient id="paint6_linear_23_605" x1="105.732" y1="128.939" x2="150.763" y2="166.967" gradientUnits="userSpaceOnUse">
<stop stop-color="#D1BDE5"/>
<stop offset="1" stop-color="white"/>
</linearGradient>
<linearGradient id="paint7_linear_23_605" x1="109.806" y1="140.085" x2="145.774" y2="170.458" gradientUnits="userSpaceOnUse">
<stop stop-color="#007C7E"/>
<stop offset="1" stop-color="#0F183B"/>
</linearGradient>
<linearGradient id="paint8_linear_23_605" x1="-21074.3" y1="-1370.25" x2="-24201.7" y2="7278.14" gradientUnits="userSpaceOnUse">
<stop stop-color="white"/>
<stop offset="1" stop-color="#9579A7"/>
</linearGradient>
<linearGradient id="paint9_linear_23_605" x1="119.286" y1="117.639" x2="143.181" y2="137.818" gradientUnits="userSpaceOnUse">
<stop stop-color="#D1BDE5"/>
<stop offset="1" stop-color="#F4DBEE"/>
</linearGradient>
<linearGradient id="paint10_linear_23_605" x1="-5865.8" y1="1929.18" x2="-6056.61" y2="2456.84" gradientUnits="userSpaceOnUse">
<stop stop-color="white"/>
<stop offset="1" stop-color="#9579A7"/>
</linearGradient>
<linearGradient id="paint11_linear_23_605" x1="-7703.85" y1="-891.702" x2="-7852.65" y2="-480.207" gradientUnits="userSpaceOnUse">
<stop stop-color="white"/>
<stop offset="1" stop-color="#9579A7"/>
</linearGradient>
<radialGradient id="paint12_radial_23_605" cx="0" cy="0" r="1" gradientUnits="userSpaceOnUse" gradientTransform="translate(131.222 157.434) rotate(-179.23) scale(23.9073 54.2715)">
<stop offset="0.01" stop-color="#00B7FF" stop-opacity="0.3"/>
<stop offset="0.23" stop-color="#00B7FF" stop-opacity="0.1"/>
<stop offset="0.88" stop-color="#00B7FF" stop-opacity="0"/>
</radialGradient>
<radialGradient id="paint13_radial_23_605" cx="0" cy="0" r="1" gradientUnits="userSpaceOnUse" gradientTransform="translate(132.986 161.37) rotate(108.971) scale(9.46792 3.95712)">
<stop stop-color="#00B2EE" stop-opacity="0.5"/>
<stop offset="0.05" stop-color="#00B2EE" stop-opacity="0.46"/>
<stop offset="0.25" stop-color="#00B2EE" stop-opacity="0.29"/>
<stop offset="0.45" stop-color="#00B2EE" stop-opacity="0.17"/>
<stop offset="0.64" stop-color="#00B2EE" stop-opacity="0.07"/>
<stop offset="0.83" stop-color="#00B2EE" stop-opacity="0.02"/>
<stop offset="1" stop-color="#00B2EE" stop-opacity="0"/>
</radialGradient>
<linearGradient id="paint14_linear_23_605" x1="-3076.63" y1="-259.548" x2="-3154.1" y2="-45.3289" gradientUnits="userSpaceOnUse">
<stop stop-color="white"/>
<stop offset="1" stop-color="#9579A7"/>
</linearGradient>
<linearGradient id="paint15_linear_23_605" x1="-3426.79" y1="421.383" x2="-3450.22" y2="486.196" gradientUnits="userSpaceOnUse">
<stop stop-color="#9579A7"/>
<stop offset="1" stop-color="white"/>
</linearGradient>
<clipPath id="clip0_23_605">
<rect width="156.582" height="197.902" fill="white" transform="translate(240.256 68.0606) rotate(109.881)"/>
</clipPath>
</defs>
</svg>
